<svg width="150" height="150" xmlns="http://www.w3.org/2000/svg">

 <g>
  <title>background</title>
  <rect fill="none" id="canvas_background" height="15" width="12" y="-1" x="-1"/>
 </g>
 <g>
  <title>Layer 1</title>
  <path fill="#ffffff" stroke="null" id="svg_2" d="m42.076677,146.372898l0,-140.818797c0,-2.62298 -2.305533,-4.737024 -5.208797,-4.737024l-30.569662,0c-2.903264,0 -5.208797,2.114044 -5.208797,4.737024l0,140.818797c0,2.62298 2.305533,4.776173 5.208797,4.776173l30.569662,0c2.903264,0 5.208797,-2.114044 5.208797,-4.776173z"/>
  <path fill="#ffffff" stroke="null" id="svg_5" d="m119.421331,145.300835l0,-140.308597c0,-2.613467 -2.30554,-4.719846 -5.2088,-4.719846l-30.56966,0c-2.90327,0 -5.2088,2.106379 -5.2088,4.719846l0,140.308597c0,2.613487 2.30553,4.75888 5.2088,4.75888l30.56966,0c2.90326,0 5.2088,-2.106379 5.2088,-4.75888z"/>
 </g>
</svg>