<svg width="40" height="40" xmlns="http://www.w3.org/2000/svg">
 <title/>

 <desc/>
 <g>
  <title>background</title>
  <rect fill="none" id="canvas_background" height="14" width="14" y="-1" x="-1"/>
 </g>
 <g>
  <title>Layer 1</title>
  <path id="pause" fill="#ffffff" d="m15.599457,11.510638c-1.012,0 -1.834,0.826 -1.834,1.846l0,20.306c0,1.022 0.822,1.848 1.834,1.848l3.333,0c1.014,0 1.834,-0.826 1.834,-1.848l0,-20.306c0,-1.02 -0.82,-1.846 -1.834,-1.846l-3.333,0zm15,0c-1.012,0 -1.833,0.826 -1.833,1.846l0,20.306c0,1.022 0.821,1.848 1.833,1.848l3.334,0c1.012,0 1.833,-0.826 1.833,-1.848l0,-20.306c0,-1.02 -0.821,-1.846 -1.833,-1.846l-3.334,0z"/>
 </g>
</svg>