<svg id="svg" version="1.1" xmlns="http://www.w3.org/2000/svg" xmlns:xlink="http://www.w3.org/1999/xlink" width="20" height="20" viewBox="0, 0, 400,266.6666666666667"><g id="svgg"><path id="path0" d="M308.933 40.961 C 307.760 42.198,306.179 43.860,305.420 44.653 C 304.561 45.549,304.007 46.380,303.953 46.847 C 303.899 47.320,303.643 47.698,303.267 47.863 C 302.937 48.008,302.667 48.214,302.667 48.320 C 302.667 48.716,298.420 53.166,297.825 53.394 C 297.594 53.483,297.334 54.019,297.242 54.599 C 297.119 55.367,296.897 55.725,296.404 55.950 C 296.035 56.118,295.733 56.438,295.733 56.661 C 295.733 56.884,295.610 57.067,295.458 57.067 C 295.307 57.067,295.107 57.277,295.014 57.533 C 294.775 58.190,291.602 61.254,290.945 61.463 C 290.539 61.592,290.400 61.864,290.400 62.530 C 290.400 63.209,290.145 63.689,289.333 64.533 C 288.747 65.144,288.267 65.753,288.267 65.886 C 288.267 66.144,285.141 69.282,284.435 69.733 C 284.205 69.880,283.960 70.340,283.889 70.755 C 283.818 71.171,283.275 72.038,282.680 72.683 C 282.086 73.327,281.600 73.963,281.600 74.096 C 281.600 74.394,279.485 76.533,279.190 76.533 C 279.072 76.533,278.901 76.863,278.811 77.267 C 278.719 77.673,277.818 78.832,276.790 79.865 C 275.769 80.891,274.933 81.839,274.933 81.972 C 274.933 82.105,274.273 82.853,273.467 83.634 C 272.660 84.416,272.000 85.286,272.000 85.569 C 272.000 85.852,271.411 86.613,270.691 87.261 C 269.971 87.908,269.096 88.860,268.745 89.376 C 267.920 90.592,266.395 92.131,265.800 92.347 C 265.517 92.450,265.333 92.792,265.333 93.218 C 265.333 93.692,264.943 94.316,264.133 95.137 C 263.473 95.807,262.933 96.468,262.933 96.606 C 262.933 96.744,262.273 97.486,261.467 98.255 C 260.660 99.024,260.000 99.867,260.000 100.128 C 260.000 100.389,259.160 101.420,258.133 102.418 C 257.107 103.417,256.267 104.374,256.267 104.545 C 256.267 104.717,255.607 105.486,254.800 106.255 C 253.993 107.024,253.331 107.881,253.328 108.160 C 253.325 108.439,252.785 109.201,252.128 109.853 C 251.471 110.506,250.933 111.154,250.933 111.293 C 250.933 111.433,250.273 112.186,249.467 112.968 C 248.660 113.749,248.000 114.588,248.000 114.833 C 248.000 115.077,247.160 116.116,246.133 117.140 C 245.107 118.165,244.267 119.122,244.267 119.266 C 244.267 119.621,242.384 121.462,241.800 121.678 C 241.500 121.789,241.333 122.131,241.333 122.639 C 241.333 123.155,241.111 123.603,240.691 123.934 C 240.337 124.212,239.747 124.883,239.379 125.425 C 239.011 125.967,238.100 127.007,237.355 127.737 C 236.610 128.467,235.999 129.275,235.998 129.532 C 235.997 129.789,235.457 130.529,234.798 131.177 C 234.139 131.824,233.600 132.465,233.600 132.601 C 233.600 132.948,230.369 136.129,229.800 136.342 C 229.517 136.448,229.333 136.795,229.333 137.223 C 229.333 137.692,228.974 138.289,228.263 139.000 C 227.674 139.589,227.121 140.354,227.034 140.702 C 226.947 141.049,226.798 141.333,226.704 141.333 C 226.307 141.333,224.267 143.443,224.267 143.853 C 224.267 144.099,223.367 145.245,222.267 146.400 C 221.167 147.555,220.267 148.613,220.267 148.751 C 220.267 149.089,218.203 151.200,217.872 151.200 C 217.728 151.200,217.531 151.530,217.433 151.933 C 217.336 152.337,216.734 153.232,216.095 153.922 C 215.456 154.612,214.933 155.358,214.933 155.579 C 214.933 155.800,214.693 156.110,214.399 156.267 C 213.561 156.716,212.000 158.375,212.000 158.818 C 212.000 159.038,211.160 160.058,210.133 161.085 C 209.107 162.112,208.267 163.076,208.267 163.227 C 208.267 163.617,206.386 165.348,205.661 165.626 C 205.197 165.804,205.083 166.015,205.176 166.528 C 205.286 167.132,204.805 167.965,204.314 168.020 C 204.215 168.032,203.924 168.081,203.668 168.130 C 203.391 168.183,202.979 167.905,202.650 167.443 C 202.293 166.942,201.862 166.667,201.434 166.667 C 200.957 166.667,200.273 166.140,199.011 164.800 C 198.044 163.773,197.123 162.933,196.965 162.933 C 196.488 162.933,194.400 160.527,194.400 159.978 C 194.400 159.571,194.209 159.467,193.467 159.467 C 192.953 159.467,192.533 159.347,192.533 159.200 C 192.533 159.053,192.429 158.933,192.301 158.933 C 192.174 158.933,192.070 159.143,192.071 159.400 C 192.077 160.801,191.973 161.024,191.191 161.297 C 190.484 161.543,190.390 161.692,190.443 162.483 C 190.497 163.284,190.300 163.579,188.718 165.078 C 187.737 166.007,186.933 166.905,186.933 167.071 C 186.933 167.238,186.273 167.984,185.467 168.730 C 184.607 169.524,184.000 170.312,184.000 170.632 C 184.000 171.199,180.841 174.667,180.324 174.667 C 180.166 174.667,179.963 174.896,179.874 175.175 C 179.786 175.455,179.538 175.751,179.323 175.834 C 179.109 175.916,178.933 176.154,178.933 176.363 C 178.933 176.571,178.340 177.339,177.614 178.068 C 176.889 178.798,176.220 179.692,176.129 180.055 C 176.038 180.419,175.131 181.534,174.115 182.533 C 172.038 184.573,171.971 184.719,173.000 184.964 C 173.403 185.060,174.650 186.023,175.769 187.103 C 176.889 188.183,177.985 189.067,178.205 189.067 C 178.425 189.067,178.788 189.337,179.012 189.667 C 179.834 190.878,182.322 193.333,182.727 193.333 C 182.957 193.333,183.979 194.160,184.999 195.169 C 186.018 196.179,187.083 197.078,187.363 197.167 C 187.644 197.256,188.350 197.930,188.932 198.665 C 189.606 199.516,190.195 200.000,190.556 200.000 C 190.895 200.000,191.935 200.776,193.149 201.933 C 198.363 206.909,199.264 207.703,199.974 207.951 C 200.392 208.097,201.482 208.948,202.396 209.841 C 203.309 210.735,204.222 211.467,204.424 211.467 C 204.878 211.467,207.200 213.659,207.200 214.088 C 207.200 214.523,207.928 214.479,208.187 214.029 C 208.304 213.824,208.838 213.476,209.373 213.253 C 210.098 212.953,210.392 212.644,210.524 212.043 C 210.622 211.597,211.080 210.944,211.550 210.579 C 212.660 209.719,213.169 209.213,214.933 207.209 C 215.740 206.294,216.670 205.440,217.000 205.312 C 217.456 205.135,217.600 204.866,217.600 204.188 C 217.600 203.432,217.885 203.023,219.467 201.504 C 220.493 200.518,221.333 199.643,221.333 199.558 C 221.333 199.299,223.342 197.438,223.819 197.255 C 224.115 197.141,224.267 196.781,224.267 196.187 C 224.267 195.430,224.558 195.003,226.133 193.448 C 227.160 192.435,228.000 191.475,228.000 191.315 C 228.000 191.154,228.300 190.863,228.667 190.667 C 229.126 190.421,229.333 190.085,229.333 189.586 C 229.333 189.036,229.814 188.395,231.333 186.916 C 232.433 185.845,233.333 184.816,233.333 184.627 C 233.333 184.439,233.584 184.151,233.890 183.988 C 234.754 183.525,235.983 182.058,236.001 181.467 C 236.018 180.887,236.582 180.014,236.963 179.976 C 237.093 179.963,237.775 179.273,238.478 178.443 C 239.180 177.613,240.200 176.412,240.744 175.775 C 241.288 175.138,242.003 174.511,242.333 174.382 C 242.758 174.215,242.933 173.927,242.933 173.396 C 242.933 172.864,243.237 172.366,243.973 171.689 C 244.545 171.163,245.160 170.458,245.340 170.121 C 245.520 169.784,246.042 169.199,246.499 168.821 C 246.956 168.443,247.631 167.821,247.999 167.440 C 248.366 167.059,248.877 166.673,249.133 166.582 C 249.448 166.470,249.601 166.133,249.603 165.542 C 249.605 164.890,249.850 164.429,250.561 163.738 C 251.087 163.227,251.689 162.477,251.899 162.071 C 252.109 161.665,252.385 161.333,252.514 161.333 C 253.022 161.333,254.667 159.386,254.667 158.784 C 254.667 158.386,255.074 157.783,255.775 157.144 C 256.384 156.588,257.254 155.721,257.708 155.217 C 258.162 154.712,259.163 153.670,259.933 152.901 C 260.845 151.990,261.333 151.278,261.333 150.862 C 261.333 150.440,261.788 149.791,262.667 148.959 C 263.400 148.265,264.000 147.595,264.000 147.470 C 264.000 147.169,267.109 144.067,267.759 143.720 C 268.108 143.533,268.267 143.159,268.267 142.524 C 268.267 142.016,268.377 141.600,268.511 141.600 C 268.645 141.600,269.155 141.164,269.644 140.632 C 270.133 140.099,271.163 139.040,271.933 138.277 C 272.770 137.449,273.333 136.657,273.333 136.310 C 273.333 135.990,273.691 135.340,274.129 134.864 C 275.570 133.300,276.930 132.004,277.133 132.002 C 277.243 132.001,277.333 131.859,277.333 131.688 C 277.333 131.516,277.886 130.846,278.561 130.199 C 279.236 129.552,279.895 128.643,280.025 128.178 C 280.155 127.713,280.691 126.913,281.215 126.400 C 283.338 124.322,284.008 123.579,284.148 123.147 C 284.228 122.898,284.498 122.625,284.747 122.540 C 285.672 122.226,286.667 121.098,286.667 120.364 C 286.667 119.839,287.039 119.276,288.000 118.350 C 288.733 117.643,289.333 117.008,289.333 116.937 C 289.333 116.688,292.731 113.417,293.162 113.252 C 293.444 113.143,293.600 112.775,293.600 112.219 C 293.600 111.543,293.875 111.083,294.867 110.100 C 295.563 109.409,296.278 108.684,296.455 108.488 C 296.631 108.293,297.261 107.714,297.855 107.202 C 298.759 106.422,298.933 106.109,298.933 105.269 C 298.933 104.718,299.037 104.267,299.163 104.267 C 299.458 104.267,302.667 101.126,302.667 100.837 C 302.667 100.718,303.257 100.151,303.979 99.577 C 305.280 98.542,305.589 98.025,305.596 96.867 C 305.598 96.517,305.764 96.267,305.994 96.267 C 306.210 96.267,306.581 95.971,306.818 95.610 C 307.054 95.249,307.477 94.881,307.757 94.792 C 308.037 94.703,308.267 94.519,308.267 94.381 C 308.267 94.093,311.621 90.667,311.903 90.667 C 312.007 90.667,312.339 90.877,312.641 91.133 C 313.166 91.579,313.174 91.578,312.825 91.128 C 311.970 90.025,312.201 88.848,313.544 87.464 C 314.235 86.752,314.937 86.029,315.104 85.856 C 315.272 85.684,315.824 85.150,316.330 84.670 C 316.837 84.190,317.329 83.597,317.422 83.353 C 317.516 83.108,317.958 82.781,318.403 82.626 C 319.129 82.373,319.198 82.256,319.061 81.505 C 318.924 80.756,319.034 80.567,320.086 79.733 C 320.735 79.220,321.455 78.470,321.687 78.067 C 321.919 77.663,322.294 77.333,322.521 77.333 C 322.748 77.333,322.933 77.165,322.933 76.959 C 322.933 76.754,323.300 76.458,323.747 76.302 C 324.506 76.037,324.549 75.954,324.380 75.056 C 324.205 74.121,325.808 72.000,326.689 72.000 C 326.823 72.000,326.933 71.824,326.933 71.609 C 326.933 71.395,327.173 71.090,327.467 70.933 C 327.760 70.776,328.000 70.470,328.000 70.252 C 328.000 70.034,328.298 69.720,328.662 69.554 C 329.025 69.388,329.392 69.037,329.475 68.773 C 329.559 68.510,329.861 68.220,330.147 68.129 C 330.437 68.037,330.680 67.707,330.697 67.382 C 330.714 67.062,330.744 66.653,330.764 66.474 C 330.860 65.603,335.740 61.318,336.297 61.616 C 336.599 61.778,336.893 61.863,336.950 61.805 C 337.239 61.517,337.161 58.652,336.867 58.698 C 336.057 58.826,335.390 58.527,334.498 57.638 C 333.931 57.072,333.214 56.529,332.906 56.432 C 332.597 56.335,331.877 55.657,331.306 54.925 C 330.681 54.124,329.980 53.530,329.548 53.433 C 329.153 53.345,328.016 52.447,327.018 51.436 C 326.021 50.426,325.076 49.600,324.917 49.600 C 324.758 49.600,324.040 48.940,323.321 48.133 C 322.558 47.277,321.790 46.665,321.474 46.662 C 321.165 46.660,320.145 45.869,319.090 44.814 C 318.077 43.799,316.967 42.899,316.624 42.813 C 316.281 42.727,316.000 42.562,316.000 42.447 C 316.000 41.925,314.176 40.318,313.387 40.145 C 312.908 40.040,312.326 39.664,312.094 39.310 C 311.482 38.377,311.286 38.479,308.933 40.961 M235.645 42.299 C 234.520 43.416,233.600 44.429,233.600 44.548 C 233.600 44.668,232.640 45.720,231.467 46.885 C 230.293 48.050,229.333 49.209,229.333 49.459 C 229.333 49.710,228.493 50.741,227.467 51.752 C 226.440 52.762,225.600 53.733,225.600 53.909 C 225.600 54.252,223.930 55.876,223.144 56.297 C 222.881 56.437,222.667 56.844,222.667 57.200 C 222.667 57.824,222.337 58.208,217.344 63.397 C 216.605 64.165,216.000 65.031,216.000 65.322 C 216.000 65.636,214.914 66.943,213.333 68.533 C 211.867 70.008,210.661 71.362,210.653 71.541 C 210.646 71.720,210.048 72.347,209.324 72.933 C 208.458 73.635,208.006 74.205,208.004 74.600 C 208.002 74.952,207.549 75.629,206.907 76.240 C 204.960 78.092,204.267 78.857,204.267 79.154 C 204.267 79.275,203.607 79.984,202.800 80.730 C 201.852 81.606,201.333 82.300,201.333 82.690 C 201.333 83.103,200.528 84.081,198.800 85.767 C 197.407 87.127,196.267 88.345,196.267 88.474 C 196.267 88.602,195.607 89.318,194.800 90.063 C 193.940 90.858,193.333 91.645,193.333 91.966 C 193.333 92.266,193.152 92.667,192.930 92.856 C 191.506 94.072,189.605 96.130,189.593 96.470 C 189.581 96.780,187.811 98.606,187.210 98.928 C 186.893 99.098,186.667 99.488,186.667 99.865 C 186.667 100.306,186.053 101.146,184.733 102.508 C 183.670 103.606,182.380 104.986,181.867 105.574 C 181.353 106.163,180.723 106.718,180.467 106.807 C 180.167 106.911,180.000 107.246,180.000 107.741 C 180.000 108.165,179.816 108.667,179.591 108.856 C 178.183 110.040,176.000 112.276,176.000 112.535 C 176.000 112.873,173.949 114.933,173.612 114.933 C 173.496 114.933,173.324 115.418,173.229 116.010 C 173.127 116.653,172.877 117.156,172.612 117.258 C 172.367 117.352,171.842 117.797,171.445 118.248 C 170.657 119.142,169.793 120.129,168.462 121.654 C 167.988 122.198,167.496 122.648,167.369 122.654 C 166.850 122.682,165.333 124.671,165.333 125.325 C 165.333 125.802,164.998 126.295,164.235 126.939 C 163.631 127.449,163.001 128.025,162.835 128.219 C 162.669 128.412,162.323 128.769,162.067 129.011 C 161.810 129.254,161.600 129.584,161.600 129.746 C 161.600 129.908,160.940 130.651,160.133 131.397 C 159.076 132.374,158.667 132.947,158.667 133.449 C 158.667 133.924,158.464 134.237,158.029 134.435 C 157.679 134.595,157.261 135.012,157.102 135.363 C 156.942 135.713,156.683 136.000,156.526 136.000 C 156.181 136.000,154.954 137.354,154.942 137.748 C 154.931 138.110,151.577 141.139,150.908 141.391 C 150.524 141.536,150.400 141.846,150.400 142.658 C 150.400 143.249,150.289 143.733,150.152 143.733 C 149.884 143.733,149.793 143.824,148.000 145.871 C 147.340 146.624,145.870 148.179,144.733 149.326 C 143.395 150.677,142.667 151.622,142.667 152.008 C 142.667 152.404,141.794 153.486,140.067 155.234 C 138.637 156.681,136.747 158.640,135.867 159.588 C 134.987 160.535,134.124 161.315,133.949 161.322 C 133.519 161.337,133.313 161.719,133.184 162.739 C 133.124 163.211,132.951 163.638,132.800 163.689 C 132.535 163.777,132.275 164.029,131.523 164.924 C 130.777 165.812,127.733 164.196,127.733 162.912 C 127.733 162.777,127.417 162.667,127.030 162.667 C 126.496 162.667,125.719 162.056,123.805 160.133 C 122.419 158.740,121.130 157.600,120.940 157.600 C 120.751 157.600,120.295 157.210,119.926 156.733 C 118.707 155.160,118.120 154.667,117.467 154.667 C 117.112 154.667,116.666 154.484,116.477 154.260 C 115.483 153.083,113.175 150.933,112.906 150.933 C 112.736 150.933,112.295 150.543,111.926 150.067 C 110.649 148.418,110.124 148.000,109.332 148.000 C 108.826 148.000,108.452 147.813,108.268 147.469 C 107.921 146.821,105.291 144.267,104.970 144.267 C 104.843 144.267,103.814 143.307,102.683 142.133 C 101.493 140.900,100.406 140.000,100.105 140.000 C 99.820 140.000,99.109 139.514,98.526 138.921 C 96.544 136.903,95.867 136.269,95.690 136.268 C 95.420 136.266,92.063 132.883,91.750 132.297 C 91.574 131.969,91.290 131.830,90.969 131.913 C 90.497 132.037,90.218 131.837,88.133 129.885 C 87.840 129.610,87.169 129.098,86.642 128.747 C 85.391 127.912,83.877 126.406,83.614 125.733 C 83.420 125.240,83.385 125.255,83.147 125.933 C 83.005 126.337,82.789 126.667,82.666 126.667 C 82.246 126.667,80.267 128.758,80.267 129.201 C 80.267 129.445,79.097 130.842,77.667 132.305 C 76.237 133.768,75.019 135.108,74.962 135.282 C 74.904 135.457,74.214 136.227,73.428 136.994 C 72.643 137.761,72.000 138.590,72.000 138.836 C 72.000 139.083,71.160 140.119,70.133 141.140 C 69.107 142.161,68.267 143.120,68.267 143.271 C 68.267 143.423,67.607 144.186,66.800 144.968 C 65.993 145.749,65.333 146.497,65.333 146.630 C 65.333 146.762,65.093 146.934,64.800 147.011 C 64.485 147.093,64.267 147.374,64.267 147.699 C 64.267 148.001,63.904 148.661,63.461 149.166 L 62.656 150.083 64.908 152.308 C 66.147 153.532,67.440 154.788,67.780 155.099 C 68.866 156.091,70.578 158.051,70.750 158.500 C 70.866 158.801,71.245 158.933,71.992 158.933 C 72.583 158.933,73.067 159.032,73.067 159.152 C 73.067 159.403,76.258 162.666,76.504 162.667 C 76.765 162.668,78.549 164.642,78.741 165.143 C 78.857 165.444,79.216 165.603,79.792 165.607 C 80.536 165.614,81.025 165.976,83.067 168.036 C 84.387 169.367,85.740 170.562,86.074 170.691 C 86.407 170.820,86.751 171.109,86.837 171.333 C 87.184 172.238,88.538 173.368,89.454 173.516 C 89.974 173.601,90.400 173.769,90.400 173.891 C 90.400 174.115,91.756 175.422,93.180 176.571 C 93.609 176.917,94.449 177.733,95.047 178.385 C 95.644 179.036,96.386 179.834,96.695 180.158 C 97.003 180.482,97.330 180.939,97.420 181.173 C 97.520 181.436,97.897 181.600,98.401 181.600 C 99.057 181.600,99.586 181.967,101.085 183.467 C 102.112 184.493,103.038 185.334,103.143 185.334 C 103.425 185.334,105.204 187.280,105.408 187.810 C 105.533 188.135,105.888 188.267,106.640 188.267 C 107.434 188.267,107.736 188.389,107.854 188.760 C 107.940 189.031,108.308 189.388,108.672 189.554 C 109.036 189.720,109.333 189.968,109.333 190.106 C 109.333 190.321,110.291 191.330,112.022 192.940 C 112.255 193.157,112.570 193.333,112.724 193.333 C 112.878 193.333,113.346 193.783,113.764 194.333 C 114.183 194.883,115.157 195.977,115.929 196.763 C 116.701 197.549,117.333 198.359,117.333 198.563 C 117.333 198.810,117.651 198.933,118.289 198.933 C 119.106 198.933,119.498 199.183,121.003 200.667 C 121.970 201.620,122.891 202.403,123.048 202.406 C 123.205 202.410,124.529 203.609,125.991 205.071 C 127.478 206.559,129.013 207.850,129.476 208.003 C 129.932 208.153,130.763 208.814,131.323 209.472 C 131.883 210.129,132.467 210.667,132.620 210.667 C 132.962 210.667,136.000 207.592,136.000 207.245 C 136.000 207.108,136.300 206.798,136.667 206.558 C 137.038 206.315,137.333 205.865,137.333 205.544 C 137.333 205.165,138.247 204.074,140.000 202.361 C 141.467 200.928,142.667 199.661,142.668 199.544 C 142.669 199.428,143.329 198.747,144.135 198.031 C 145.185 197.098,145.600 196.538,145.600 196.051 C 145.600 195.548,146.249 194.732,148.114 192.892 C 149.496 191.527,150.704 190.168,150.798 189.872 C 150.892 189.576,151.063 189.333,151.178 189.333 C 151.669 189.333,153.147 187.596,153.383 186.744 C 153.524 186.234,154.071 185.437,154.598 184.975 C 156.195 183.573,157.927 181.779,158.376 181.061 C 158.609 180.687,159.370 179.861,160.067 179.224 C 160.867 178.492,161.333 177.842,161.333 177.459 C 161.333 177.034,162.130 176.112,164.000 174.374 C 165.467 173.010,166.667 171.747,166.667 171.566 C 166.667 171.385,167.027 170.980,167.467 170.667 C 168.000 170.287,168.267 169.869,168.267 169.411 C 168.267 168.888,169.014 167.991,171.417 165.630 C 173.150 163.927,174.648 162.318,174.747 162.054 C 174.846 161.790,175.294 161.446,175.744 161.290 C 176.470 161.037,176.543 160.918,176.392 160.231 C 176.237 159.526,176.453 159.227,178.845 156.822 C 180.287 155.371,181.602 154.023,181.768 153.826 C 181.934 153.628,182.564 153.049,183.168 152.539 C 183.994 151.842,184.267 151.418,184.267 150.831 C 184.267 150.211,184.693 149.628,186.333 148.001 C 187.470 146.874,189.000 145.273,189.733 144.443 C 190.467 143.613,191.272 142.867,191.524 142.785 C 191.791 142.698,192.057 142.232,192.164 141.662 C 192.308 140.895,192.881 140.161,194.840 138.234 C 196.211 136.885,197.333 135.687,197.333 135.573 C 197.333 135.290,199.450 133.333,199.756 133.333 C 199.890 133.333,200.000 132.949,200.000 132.480 C 200.000 131.750,200.383 131.255,202.667 129.041 C 204.133 127.619,205.333 126.333,205.333 126.183 C 205.333 126.034,205.651 125.680,206.040 125.397 C 206.455 125.094,206.779 124.573,206.826 124.130 C 206.870 123.716,207.153 123.127,207.455 122.822 C 209.385 120.866,210.183 120.080,211.667 118.668 C 212.583 117.797,213.333 116.962,213.333 116.814 C 213.333 116.667,213.633 116.349,214.000 116.109 C 214.444 115.818,214.667 115.427,214.667 114.938 C 214.667 114.364,215.219 113.660,217.200 111.705 C 218.593 110.331,219.733 109.074,219.733 108.911 C 219.733 108.748,220.333 108.099,221.065 107.468 C 221.914 106.737,222.489 105.988,222.651 105.402 C 222.829 104.757,223.664 103.762,225.452 102.065 C 226.853 100.735,228.000 99.491,228.000 99.300 C 228.000 99.109,228.221 98.834,228.491 98.689 C 229.553 98.121,230.667 96.838,230.667 96.182 C 230.667 95.685,231.357 94.834,233.333 92.894 C 234.800 91.454,236.000 90.184,236.000 90.072 C 236.000 89.960,236.600 89.290,237.333 88.583 C 238.288 87.663,238.667 87.093,238.667 86.577 C 238.667 86.066,238.861 85.767,239.333 85.551 C 239.700 85.384,240.000 85.159,240.000 85.051 C 240.000 84.943,240.484 84.392,241.075 83.827 C 242.169 82.783,243.280 81.644,244.600 80.218 C 245.003 79.782,245.333 79.143,245.333 78.799 C 245.333 78.454,245.500 78.013,245.704 77.819 C 249.387 74.316,252.000 71.614,252.000 71.308 C 252.000 71.095,252.300 70.785,252.667 70.618 C 253.038 70.449,253.333 70.089,253.333 69.806 C 253.333 69.527,253.451 69.078,253.596 68.808 C 253.824 68.381,259.131 63.054,259.705 62.675 C 259.824 62.597,260.062 62.263,260.236 61.933 C 260.585 61.270,261.997 61.080,262.210 61.667 C 262.439 62.294,262.726 60.005,262.511 59.268 L 262.296 58.533 262.197 59.267 C 262.043 60.407,261.106 60.219,259.543 58.733 C 258.810 58.037,257.239 56.537,256.051 55.400 C 254.863 54.263,253.694 53.333,253.453 53.333 C 253.212 53.333,252.216 52.542,251.240 51.574 C 250.265 50.607,249.137 49.643,248.733 49.434 C 248.330 49.224,248.000 48.960,248.000 48.845 C 248.000 48.288,246.145 46.667,245.508 46.667 C 245.130 46.667,244.666 46.483,244.477 46.258 C 243.359 44.931,241.655 43.351,241.067 43.096 C 240.692 42.933,239.851 42.230,239.199 41.533 C 237.732 39.966,238.066 39.894,235.645 42.299 M252.707 73.458 C 252.624 73.673,252.658 73.912,252.781 73.988 C 252.905 74.065,253.068 73.889,253.145 73.597 C 253.304 72.987,252.933 72.870,252.707 73.458 M325.745 75.182 C 325.563 75.476,325.983 75.795,326.229 75.548 C 326.483 75.295,326.436 74.933,326.149 74.933 C 326.011 74.933,325.829 75.045,325.745 75.182 M315.507 87.703 C 315.309 87.828,315.190 88.149,315.241 88.416 C 315.318 88.815,315.393 88.773,315.662 88.184 C 316.024 87.390,316.020 87.378,315.507 87.703 M189.951 146.600 C 189.859 146.857,189.734 147.187,189.672 147.333 C 189.611 147.480,189.749 147.367,189.980 147.082 C 190.399 146.565,190.526 146.133,190.258 146.133 C 190.180 146.133,190.042 146.343,189.951 146.600 M259.389 156.267 C 259.313 156.560,259.345 156.800,259.461 156.800 C 259.576 156.800,259.734 156.560,259.811 156.267 C 259.887 155.973,259.855 155.733,259.739 155.733 C 259.624 155.733,259.466 155.973,259.389 156.267 M73.962 163.385 C 74.064 163.486,74.414 163.607,74.740 163.652 C 75.211 163.718,75.251 163.680,74.933 163.471 C 74.480 163.173,73.679 163.102,73.962 163.385 M83.296 171.385 C 83.397 171.486,83.747 171.607,84.074 171.652 C 84.544 171.718,84.584 171.680,84.267 171.471 C 83.814 171.173,83.013 171.102,83.296 171.385 M240.719 178.772 C 240.610 179.049,240.584 179.339,240.660 179.416 C 240.904 179.659,241.118 179.261,241.016 178.754 C 240.922 178.290,240.908 178.291,240.719 178.772 " stroke="none" fill="#34b4f4" fill-rule="evenodd"></path><path id="path1" d="M309.394 36.537 C 309.061 36.675,308.713 37.000,308.621 37.260 C 308.529 37.520,308.211 38.003,307.914 38.333 C 307.617 38.663,307.469 38.933,307.586 38.933 C 307.703 38.933,307.650 39.112,307.469 39.330 C 307.288 39.549,307.041 39.667,306.921 39.593 C 306.645 39.422,305.842 40.544,306.027 40.843 C 306.103 40.966,306.038 41.067,305.882 41.067 C 305.727 41.067,305.600 41.174,305.600 41.305 C 305.600 41.646,304.106 43.200,303.778 43.200 C 303.626 43.200,303.430 43.429,303.341 43.709 C 303.252 43.990,302.884 44.412,302.523 44.649 C 302.162 44.885,301.865 45.286,301.862 45.539 C 301.860 45.793,301.500 46.406,301.062 46.903 C 300.625 47.399,300.267 47.920,300.267 48.060 C 300.267 48.200,299.427 49.125,298.400 50.115 C 297.373 51.106,296.533 52.008,296.533 52.120 C 296.533 52.232,296.243 52.552,295.887 52.832 C 295.532 53.111,295.163 53.693,295.069 54.124 C 294.974 54.556,294.675 54.980,294.404 55.065 C 294.133 55.151,293.784 55.586,293.629 56.031 C 293.449 56.547,293.233 56.770,293.032 56.645 C 292.855 56.536,292.788 56.565,292.878 56.711 C 292.967 56.854,292.325 57.620,291.453 58.412 C 290.580 59.205,289.867 59.988,289.867 60.152 C 289.867 60.316,289.629 60.665,289.340 60.928 C 289.050 61.190,288.873 61.503,288.947 61.622 C 289.021 61.742,288.808 61.983,288.474 62.159 C 287.927 62.446,287.358 63.120,287.370 63.467 C 287.373 63.540,286.976 63.988,286.488 64.462 C 285.999 64.936,285.600 65.432,285.600 65.564 C 285.600 65.696,285.360 65.867,285.067 65.944 C 284.748 66.027,284.533 66.308,284.533 66.642 C 284.533 67.147,284.255 67.331,283.647 67.225 C 283.526 67.204,283.491 67.290,283.568 67.415 C 283.646 67.541,282.997 68.354,282.125 69.222 C 281.254 70.090,280.540 70.885,280.538 70.988 C 280.528 71.419,279.090 73.253,277.727 74.573 C 276.924 75.351,276.267 76.089,276.267 76.212 C 276.267 76.335,275.730 76.972,275.074 77.628 C 274.417 78.284,273.844 79.057,273.799 79.344 C 273.754 79.631,273.091 80.501,272.325 81.277 C 271.560 82.053,270.933 82.789,270.933 82.913 C 270.933 83.037,270.693 83.201,270.400 83.277 C 270.107 83.354,269.867 83.608,269.867 83.842 C 269.867 84.497,269.804 84.591,268.705 85.584 C 267.762 86.436,267.051 87.576,267.157 88.067 C 267.181 88.177,267.083 88.267,266.940 88.267 C 266.599 88.267,264.608 90.328,263.616 91.709 C 263.184 92.309,262.737 92.800,262.622 92.800 C 262.327 92.800,261.550 94.370,261.714 94.636 C 261.789 94.756,261.564 94.986,261.215 95.145 C 260.865 95.304,260.501 95.681,260.405 95.984 C 260.309 96.286,260.056 96.533,259.842 96.533 C 259.628 96.533,259.339 96.833,259.200 97.200 C 259.061 97.567,258.777 97.867,258.569 97.867 C 258.361 97.867,258.009 98.317,257.786 98.867 C 257.563 99.417,257.131 100.107,256.827 100.400 C 256.522 100.693,256.035 101.161,255.745 101.438 C 255.454 101.716,255.279 102.046,255.357 102.172 C 255.435 102.297,255.371 102.400,255.216 102.400 C 255.060 102.400,254.933 102.566,254.933 102.769 C 254.933 102.972,254.693 103.201,254.400 103.277 C 254.081 103.361,253.867 103.641,253.867 103.975 C 253.867 104.282,253.777 104.519,253.667 104.502 C 253.080 104.409,252.758 104.599,252.485 105.200 C 252.318 105.567,252.035 105.867,251.856 105.867 C 251.678 105.867,251.370 106.257,251.172 106.733 C 250.975 107.210,250.660 107.780,250.471 108.000 C 250.283 108.220,250.160 108.468,250.198 108.552 C 250.236 108.636,249.517 109.447,248.600 110.355 C 247.683 111.263,246.933 112.125,246.933 112.270 C 246.933 112.415,246.742 112.533,246.508 112.533 C 246.144 112.533,245.939 112.881,245.771 113.787 C 245.750 113.898,245.276 114.402,244.716 114.908 C 243.645 115.875,242.840 117.151,243.122 117.433 C 243.214 117.525,243.152 117.600,242.985 117.600 C 242.647 117.600,240.267 119.894,240.267 120.220 C 240.267 120.333,239.779 120.933,239.184 121.553 C 238.588 122.173,237.926 123.097,237.713 123.607 C 237.500 124.116,237.205 124.533,237.057 124.533 C 236.910 124.533,236.657 124.823,236.495 125.177 C 236.334 125.532,235.976 125.880,235.701 125.952 C 235.412 126.028,235.200 126.320,235.200 126.642 C 235.200 127.147,234.960 127.315,234.497 127.133 C 234.346 127.074,234.058 127.650,233.864 128.400 C 233.826 128.547,233.571 128.823,233.297 129.015 C 233.024 129.207,232.800 129.537,232.800 129.748 C 232.800 129.960,232.680 130.133,232.533 130.133 C 232.387 130.133,232.267 130.262,232.267 130.420 C 232.267 130.577,231.667 131.300,230.933 132.025 C 230.200 132.751,229.600 133.448,229.600 133.575 C 229.600 133.701,229.360 133.867,229.067 133.944 C 228.773 134.021,228.533 134.261,228.533 134.478 C 228.533 134.695,228.233 135.069,227.867 135.309 C 227.500 135.549,227.200 135.876,227.200 136.034 C 227.200 136.193,226.900 136.559,226.533 136.848 C 226.167 137.136,225.867 137.603,225.867 137.886 C 225.867 138.169,225.713 138.400,225.524 138.400 C 225.336 138.400,224.953 138.787,224.674 139.259 C 224.395 139.731,223.891 140.373,223.554 140.686 C 223.218 140.998,223.020 141.331,223.115 141.427 C 223.211 141.522,223.092 141.600,222.851 141.600 C 222.610 141.600,222.202 141.930,221.944 142.333 C 221.687 142.737,221.264 143.223,221.005 143.415 C 220.745 143.607,220.533 143.908,220.533 144.085 C 220.533 144.262,220.263 144.525,219.933 144.670 C 219.563 144.833,219.301 145.213,219.249 145.667 C 219.203 146.070,219.011 146.400,218.824 146.400 C 218.637 146.400,218.257 146.821,217.981 147.335 C 217.704 147.849,217.271 148.335,217.019 148.415 C 216.767 148.495,216.483 148.806,216.388 149.106 C 216.292 149.406,215.723 150.128,215.123 150.711 C 214.522 151.294,213.904 151.978,213.749 152.232 C 213.594 152.485,213.227 153.093,212.933 153.583 C 212.640 154.072,212.070 154.820,211.667 155.245 C 211.263 155.671,210.933 156.134,210.933 156.276 C 210.933 156.417,210.750 156.533,210.527 156.533 C 210.303 156.533,209.995 156.863,209.842 157.266 C 209.688 157.669,209.373 158.209,209.140 158.466 C 208.908 158.723,208.826 158.941,208.959 158.950 C 209.091 158.960,208.926 159.077,208.591 159.212 C 208.255 159.346,207.775 159.841,207.524 160.310 C 207.272 160.779,206.818 161.412,206.513 161.715 C 206.209 162.018,205.883 162.477,205.788 162.733 C 205.694 162.990,205.441 163.200,205.226 163.200 C 204.871 163.200,204.361 164.140,204.475 164.584 C 204.568 164.942,203.435 165.106,203.054 164.789 C 202.841 164.613,202.667 164.543,202.667 164.634 C 202.667 164.726,202.030 164.148,201.252 163.352 C 200.474 162.555,199.511 161.821,199.112 161.721 C 198.713 161.621,198.265 161.312,198.117 161.036 C 197.969 160.760,197.707 160.533,197.534 160.533 C 197.361 160.533,196.968 160.217,196.660 159.831 C 196.289 159.365,195.822 159.118,195.276 159.098 C 194.823 159.081,194.508 158.976,194.576 158.865 C 194.773 158.544,193.929 158.327,193.199 158.510 C 192.160 158.771,192.354 159.467,193.467 159.467 C 194.209 159.467,194.400 159.571,194.400 159.978 C 194.400 160.527,196.488 162.933,196.965 162.933 C 197.123 162.933,198.044 163.773,199.011 164.800 C 200.273 166.140,200.957 166.667,201.434 166.667 C 201.862 166.667,202.293 166.942,202.650 167.443 C 202.979 167.905,203.391 168.183,203.668 168.130 C 203.924 168.081,204.215 168.032,204.314 168.020 C 204.805 167.965,205.286 167.132,205.176 166.528 C 205.083 166.015,205.197 165.804,205.661 165.626 C 206.386 165.348,208.267 163.617,208.267 163.227 C 208.267 163.076,209.107 162.112,210.133 161.085 C 211.160 160.058,212.000 159.038,212.000 158.818 C 212.000 158.375,213.561 156.716,214.399 156.267 C 214.693 156.110,214.933 155.800,214.933 155.579 C 214.933 155.358,215.456 154.612,216.095 153.922 C 216.734 153.232,217.336 152.337,217.433 151.933 C 217.531 151.530,217.728 151.200,217.872 151.200 C 218.203 151.200,220.267 149.089,220.267 148.751 C 220.267 148.613,221.167 147.555,222.267 146.400 C 223.367 145.245,224.267 144.099,224.267 143.853 C 224.267 143.443,226.307 141.333,226.704 141.333 C 226.798 141.333,226.947 141.049,227.034 140.702 C 227.121 140.354,227.674 139.589,228.263 139.000 C 228.974 138.289,229.333 137.692,229.333 137.223 C 229.333 136.795,229.517 136.448,229.800 136.342 C 230.369 136.129,233.600 132.948,233.600 132.601 C 233.600 132.465,234.139 131.824,234.798 131.177 C 235.457 130.529,235.997 129.789,235.998 129.532 C 235.999 129.275,236.610 128.467,237.355 127.737 C 238.100 127.007,239.011 125.967,239.379 125.425 C 239.747 124.883,240.337 124.212,240.691 123.934 C 241.111 123.603,241.333 123.155,241.333 122.639 C 241.333 122.131,241.500 121.789,241.800 121.678 C 242.384 121.462,244.267 119.621,244.267 119.266 C 244.267 119.122,245.107 118.165,246.133 117.140 C 247.160 116.116,248.000 115.077,248.000 114.833 C 248.000 114.588,248.660 113.749,249.467 112.968 C 250.273 112.186,250.933 111.433,250.933 111.293 C 250.933 111.154,251.471 110.506,252.128 109.853 C 252.785 109.201,253.325 108.439,253.328 108.160 C 253.331 107.881,253.993 107.024,254.800 106.255 C 255.607 105.486,256.267 104.717,256.267 104.545 C 256.267 104.374,257.107 103.417,258.133 102.418 C 259.160 101.420,260.000 100.389,260.000 100.128 C 260.000 99.867,260.660 99.024,261.467 98.255 C 262.273 97.486,262.933 96.744,262.933 96.606 C 262.933 96.468,263.473 95.807,264.133 95.137 C 264.943 94.316,265.333 93.692,265.333 93.218 C 265.333 92.792,265.517 92.450,265.800 92.347 C 266.395 92.131,267.920 90.592,268.745 89.376 C 269.096 88.860,269.971 87.908,270.691 87.261 C 271.411 86.613,272.000 85.852,272.000 85.569 C 272.000 85.286,272.660 84.416,273.467 83.634 C 274.273 82.853,274.933 82.105,274.933 81.972 C 274.933 81.839,275.769 80.891,276.790 79.865 C 277.818 78.832,278.719 77.673,278.811 77.267 C 278.901 76.863,279.072 76.533,279.190 76.533 C 279.485 76.533,281.600 74.394,281.600 74.096 C 281.600 73.963,282.086 73.327,282.680 72.683 C 283.275 72.038,283.818 71.171,283.889 70.755 C 283.960 70.340,284.205 69.880,284.435 69.733 C 285.141 69.282,288.267 66.144,288.267 65.886 C 288.267 65.753,288.747 65.144,289.333 64.533 C 290.145 63.689,290.400 63.209,290.400 62.530 C 290.400 61.864,290.539 61.592,290.945 61.463 C 291.602 61.254,294.775 58.190,295.014 57.533 C 295.107 57.277,295.307 57.067,295.458 57.067 C 295.610 57.067,295.733 56.884,295.733 56.661 C 295.733 56.438,296.035 56.118,296.404 55.950 C 296.897 55.725,297.119 55.367,297.242 54.599 C 297.334 54.019,297.594 53.483,297.825 53.394 C 298.420 53.166,302.667 48.716,302.667 48.320 C 302.667 48.214,302.937 48.008,303.267 47.863 C 303.636 47.701,303.918 47.292,304.000 46.800 C 304.133 46.004,304.460 45.620,308.999 40.936 C 311.431 38.426,311.493 38.393,312.094 39.310 C 312.326 39.664,312.908 40.040,313.387 40.145 C 314.176 40.318,316.000 41.925,316.000 42.447 C 316.000 42.562,316.281 42.727,316.624 42.813 C 316.967 42.899,318.077 43.799,319.090 44.814 C 320.145 45.869,321.165 46.660,321.474 46.662 C 321.790 46.665,322.558 47.277,323.321 48.133 C 324.040 48.940,324.758 49.600,324.917 49.600 C 325.076 49.600,326.021 50.426,327.018 51.436 C 328.016 52.447,329.153 53.345,329.548 53.433 C 329.980 53.530,330.681 54.124,331.306 54.925 C 331.877 55.657,332.597 56.335,332.906 56.432 C 333.214 56.529,333.931 57.072,334.498 57.638 C 335.397 58.535,335.761 58.701,336.733 58.658 C 336.843 58.653,337.016 59.103,337.118 59.658 C 337.221 60.223,337.253 59.682,337.190 58.427 C 337.078 56.206,336.667 55.200,335.872 55.200 C 335.700 55.200,335.278 54.900,334.933 54.533 C 334.589 54.167,334.147 53.867,333.952 53.867 C 333.756 53.867,333.336 53.567,333.017 53.200 C 332.698 52.833,332.293 52.533,332.116 52.533 C 331.940 52.533,331.733 52.294,331.656 52.001 C 331.580 51.709,331.296 51.384,331.025 51.281 C 330.755 51.177,329.941 50.523,329.216 49.829 C 328.492 49.134,327.639 48.501,327.321 48.421 C 326.674 48.258,325.547 47.352,323.899 45.667 C 323.289 45.043,322.657 44.533,322.494 44.533 C 322.332 44.533,322.050 44.355,321.869 44.136 C 321.688 43.918,321.403 43.817,321.236 43.912 C 321.070 44.008,321.024 43.985,321.136 43.863 C 321.372 43.603,320.322 42.400,319.860 42.400 C 319.687 42.400,318.819 41.680,317.931 40.800 C 317.043 39.920,316.185 39.200,316.025 39.200 C 315.864 39.200,315.733 39.045,315.733 38.856 C 315.733 37.358,311.320 35.744,309.394 36.537 M237.000 37.867 C 236.597 37.988,236.267 38.047,236.267 37.998 C 236.267 37.949,235.757 38.384,235.133 38.965 C 234.510 39.546,234.060 40.075,234.133 40.139 C 234.207 40.204,233.996 40.446,233.665 40.678 C 233.032 41.121,232.105 42.659,232.460 42.677 C 232.574 42.683,232.345 42.863,231.952 43.076 C 231.558 43.290,231.164 43.692,231.076 43.970 C 230.988 44.248,230.680 44.537,230.391 44.613 C 230.080 44.694,229.867 44.977,229.867 45.308 C 229.867 45.691,229.697 45.867,229.327 45.867 C 229.014 45.867,228.688 46.119,228.553 46.467 C 228.424 46.797,228.067 47.243,227.759 47.459 C 227.452 47.675,227.200 47.986,227.200 48.151 C 227.200 48.316,226.963 48.665,226.673 48.928 C 226.383 49.190,226.202 49.495,226.270 49.605 C 226.338 49.716,226.161 49.867,225.877 49.941 C 225.314 50.089,224.211 51.694,224.430 52.048 C 224.504 52.169,224.258 52.384,223.883 52.527 C 223.507 52.670,223.200 52.940,223.200 53.128 C 223.200 53.315,222.600 54.008,221.867 54.667 C 221.133 55.326,220.533 56.021,220.533 56.212 C 220.533 56.785,219.728 58.162,219.482 58.010 C 219.232 57.855,217.600 59.592,217.600 60.012 C 217.600 60.394,215.978 62.012,215.681 61.927 C 215.541 61.886,215.498 61.969,215.585 62.109 C 215.672 62.250,215.321 62.687,214.805 63.081 C 214.289 63.475,213.867 64.029,213.867 64.314 C 213.867 64.599,213.763 64.767,213.636 64.689 C 213.345 64.509,212.385 65.541,212.622 65.778 C 212.718 65.874,212.557 66.120,212.265 66.325 C 211.973 66.529,211.733 66.877,211.733 67.098 C 211.733 67.318,211.625 67.431,211.494 67.350 C 211.191 67.163,209.600 68.950,209.600 69.476 C 209.600 69.691,209.439 69.867,209.243 69.867 C 209.046 69.867,208.749 70.167,208.582 70.533 C 208.415 70.900,208.104 71.200,207.890 71.200 C 207.677 71.200,207.430 71.429,207.341 71.709 C 207.252 71.990,206.884 72.412,206.523 72.649 C 206.162 72.885,205.867 73.302,205.867 73.573 C 205.867 73.845,205.687 74.217,205.467 74.400 C 205.247 74.583,205.067 74.904,205.067 75.115 C 205.067 75.326,204.959 75.431,204.827 75.350 C 204.559 75.184,202.933 76.922,202.933 77.374 C 202.933 77.532,202.093 78.474,201.067 79.467 C 200.040 80.459,199.200 81.358,199.200 81.464 C 199.200 81.570,198.900 81.893,198.533 82.181 C 198.167 82.469,197.867 82.847,197.866 83.019 C 197.866 83.301,197.467 83.755,195.738 85.440 C 195.452 85.719,195.281 86.049,195.358 86.174 C 195.435 86.298,195.371 86.400,195.216 86.400 C 195.060 86.400,194.933 86.580,194.933 86.800 C 194.933 87.020,194.753 87.200,194.533 87.200 C 194.313 87.200,194.133 87.323,194.133 87.473 C 194.133 87.623,193.473 88.384,192.667 89.166 C 191.860 89.947,191.200 90.730,191.200 90.906 C 191.200 91.458,190.388 92.824,190.149 92.676 C 189.855 92.495,188.267 94.295,188.267 94.809 C 188.267 95.024,188.117 95.201,187.933 95.202 C 187.750 95.203,187.391 95.570,187.136 96.019 C 186.854 96.514,186.550 96.759,186.361 96.643 C 186.175 96.527,186.123 96.567,186.230 96.741 C 186.329 96.901,185.989 97.353,185.472 97.748 C 184.956 98.141,184.533 98.660,184.533 98.901 C 184.533 99.325,183.991 99.980,182.547 101.301 C 182.056 101.750,181.899 102.102,182.011 102.501 C 182.136 102.952,182.111 102.985,181.888 102.667 C 181.734 102.447,181.606 102.400,181.604 102.564 C 181.602 102.727,180.765 103.737,179.745 104.806 C 178.725 105.876,177.817 107.087,177.727 107.497 C 177.633 107.923,177.327 108.317,177.013 108.417 C 176.579 108.555,176.540 108.641,176.831 108.825 C 177.137 109.019,177.132 109.061,176.800 109.071 C 176.179 109.092,175.133 110.076,175.354 110.434 C 175.486 110.646,175.434 110.678,175.196 110.531 C 174.944 110.375,174.889 110.432,175.003 110.730 C 175.108 111.005,174.981 111.195,174.628 111.287 C 174.334 111.364,174.035 111.651,173.964 111.924 C 173.892 112.197,173.575 112.536,173.259 112.677 C 172.943 112.818,172.602 113.233,172.502 113.600 C 172.402 113.967,172.308 114.158,172.293 114.025 C 172.245 113.584,171.251 114.695,171.077 115.385 C 170.898 116.102,170.286 116.864,170.067 116.645 C 169.828 116.406,168.267 118.412,168.267 118.958 C 168.267 119.255,168.160 119.432,168.030 119.352 C 167.742 119.174,167.137 119.848,167.373 120.084 C 167.465 120.176,167.212 120.377,166.811 120.529 C 166.410 120.682,166.022 121.034,165.950 121.312 C 165.877 121.590,165.589 121.877,165.310 121.950 C 165.031 122.023,164.718 122.304,164.616 122.575 C 164.513 122.845,164.152 123.285,163.814 123.553 C 163.476 123.820,163.200 124.187,163.200 124.367 C 163.200 124.548,162.606 125.265,161.881 125.960 C 161.155 126.656,160.478 127.489,160.376 127.812 C 160.274 128.136,159.367 129.196,158.362 130.169 C 157.356 131.142,156.533 132.109,156.533 132.318 C 156.533 132.698,155.028 134.400,154.693 134.400 C 154.505 134.400,153.600 135.827,153.600 136.124 C 153.600 136.220,153.750 136.213,153.933 136.110 C 154.160 135.982,154.181 136.011,154.000 136.202 C 153.853 136.356,153.493 136.525,153.200 136.578 C 152.907 136.631,152.667 136.806,152.667 136.968 C 152.667 137.129,152.307 137.619,151.867 138.056 C 150.804 139.111,149.867 140.267,150.072 140.267 C 150.163 140.267,149.824 140.693,149.319 141.215 C 148.814 141.736,148.455 142.186,148.521 142.215 C 148.588 142.243,148.416 142.531,148.140 142.853 C 147.864 143.175,147.521 143.367,147.378 143.278 C 147.235 143.190,147.198 143.248,147.297 143.408 C 147.397 143.569,147.118 143.909,146.666 144.176 C 146.204 144.449,145.914 144.806,145.992 145.008 C 146.066 145.202,146.009 145.288,145.864 145.198 C 145.719 145.109,145.600 145.165,145.600 145.324 C 145.600 145.482,144.460 146.738,143.067 148.113 C 141.465 149.694,140.533 150.819,140.533 151.173 C 140.533 151.481,140.400 151.733,140.238 151.733 C 139.809 151.733,136.518 155.226,136.688 155.501 C 136.767 155.629,136.704 155.733,136.549 155.733 C 136.394 155.733,136.267 155.864,136.267 156.024 C 136.267 156.183,135.427 157.125,134.400 158.115 C 133.373 159.106,132.533 160.001,132.533 160.104 C 132.533 160.208,132.239 160.556,131.879 160.879 C 131.519 161.202,131.117 161.887,130.986 162.400 L 130.749 163.333 129.412 161.933 C 128.677 161.163,127.954 160.533,127.807 160.533 C 127.659 160.533,127.238 160.297,126.872 160.009 C 126.505 159.720,126.119 159.570,126.013 159.675 C 125.908 159.781,125.862 159.687,125.911 159.467 C 125.960 159.247,125.850 159.097,125.667 159.133 C 125.483 159.170,125.333 159.080,125.333 158.934 C 125.333 158.504,123.431 156.524,123.171 156.685 C 123.040 156.765,122.933 156.704,122.933 156.549 C 122.933 156.394,122.806 156.267,122.651 156.267 C 122.496 156.267,122.454 156.405,122.559 156.575 C 122.680 156.771,122.632 156.810,122.423 156.681 C 122.244 156.570,122.162 156.416,122.240 156.338 C 122.448 156.130,121.896 155.200,121.564 155.200 C 121.408 155.200,120.739 154.630,120.077 153.933 C 119.415 153.237,118.779 152.693,118.663 152.724 C 118.548 152.756,117.770 152.126,116.935 151.324 C 116.101 150.522,115.309 149.933,115.175 150.015 C 115.042 150.097,114.933 150.025,114.933 149.854 C 114.933 149.669,114.747 149.615,114.475 149.719 C 114.223 149.816,114.098 149.813,114.199 149.712 C 114.463 149.448,113.912 148.533,113.488 148.533 C 113.290 148.533,112.925 148.223,112.676 147.844 C 112.427 147.464,112.154 147.224,112.069 147.309 C 111.983 147.395,111.694 147.105,111.427 146.666 C 111.160 146.226,110.762 145.867,110.542 145.867 C 110.322 145.867,109.579 145.327,108.890 144.667 C 108.201 144.007,107.508 143.467,107.349 143.467 C 107.191 143.467,106.763 143.107,106.400 142.667 C 106.037 142.227,105.644 141.867,105.527 141.867 C 105.210 141.867,103.597 140.192,103.387 139.644 C 103.286 139.381,103.094 139.234,102.960 139.317 C 102.825 139.400,102.412 139.108,102.042 138.667 C 101.671 138.227,101.263 137.867,101.135 137.867 C 101.006 137.867,100.489 137.382,99.984 136.789 C 99.029 135.668,97.744 134.813,97.364 135.047 C 97.244 135.122,97.010 134.887,96.845 134.525 C 96.680 134.163,96.418 133.867,96.263 133.867 C 95.886 133.867,94.285 132.247,94.046 131.623 C 93.940 131.348,93.780 131.198,93.689 131.289 C 93.598 131.380,93.125 131.127,92.638 130.727 C 92.151 130.327,91.389 129.721,90.943 129.380 C 90.498 129.039,90.133 128.603,90.133 128.412 C 90.133 128.003,88.241 126.405,87.000 125.766 C 86.523 125.520,86.133 125.197,86.133 125.046 C 86.133 124.896,85.722 124.601,85.218 124.390 C 84.715 124.180,84.228 123.886,84.136 123.737 C 83.854 123.282,82.690 123.436,82.355 123.973 C 82.181 124.252,81.878 124.418,81.681 124.343 C 81.303 124.198,78.218 127.229,77.067 128.877 C 76.700 129.402,76.191 129.888,75.935 129.957 C 75.679 130.026,75.385 130.304,75.282 130.575 C 75.179 130.845,74.819 131.285,74.481 131.553 C 74.143 131.820,73.867 132.150,73.867 132.285 C 73.867 132.663,71.983 135.200,71.703 135.200 C 71.567 135.200,71.319 135.500,71.151 135.867 C 70.984 136.233,70.684 136.533,70.484 136.533 C 70.284 136.533,70.017 136.803,69.891 137.133 C 69.764 137.463,69.407 137.962,69.097 138.241 C 68.787 138.521,68.533 138.918,68.533 139.124 C 68.533 139.330,68.429 139.434,68.302 139.355 C 68.006 139.172,67.318 139.953,67.076 140.746 C 66.923 141.248,64.557 143.846,61.041 147.372 C 59.910 148.506,60.076 152.279,61.286 152.915 C 61.679 153.122,62.527 153.787,63.171 154.393 C 63.815 154.999,64.685 155.564,65.104 155.648 C 65.524 155.731,65.867 155.961,65.867 156.157 C 65.867 156.354,66.137 156.658,66.467 156.833 C 66.797 157.008,67.223 157.372,67.415 157.642 C 67.607 157.912,67.885 158.133,68.034 158.133 C 68.367 158.133,68.960 158.705,69.003 159.067 C 69.021 159.213,69.312 159.399,69.651 159.479 C 69.990 159.559,70.267 159.797,70.267 160.008 C 70.267 160.220,70.579 160.543,70.962 160.726 C 71.344 160.909,72.124 161.541,72.695 162.129 C 73.266 162.718,73.950 163.200,74.216 163.200 C 74.481 163.200,74.625 163.319,74.535 163.464 C 74.442 163.615,74.549 163.659,74.786 163.568 C 75.052 163.466,75.200 163.559,75.200 163.829 C 75.200 164.059,75.619 164.532,76.132 164.881 C 76.644 165.229,76.988 165.590,76.895 165.683 C 76.802 165.776,77.026 165.966,77.393 166.105 C 77.760 166.245,78.140 166.566,78.237 166.818 C 78.333 167.070,78.481 167.208,78.564 167.125 C 78.743 166.946,79.817 167.862,81.702 169.800 C 82.451 170.570,83.281 171.200,83.547 171.200 C 83.814 171.200,83.958 171.319,83.869 171.464 C 83.775 171.615,83.882 171.659,84.119 171.568 C 84.498 171.423,84.668 171.729,84.557 172.356 C 84.536 172.479,84.756 172.641,85.047 172.717 C 85.337 172.794,85.766 173.147,85.999 173.503 C 86.233 173.859,86.517 174.093,86.631 174.022 C 86.885 173.865,87.749 174.829,87.541 175.037 C 87.459 175.118,87.727 175.312,88.135 175.467 C 88.543 175.622,89.446 176.346,90.141 177.075 C 90.879 177.848,91.640 178.400,91.969 178.400 C 92.287 178.400,92.533 178.571,92.533 178.791 C 92.533 179.005,92.803 179.325,93.133 179.500 C 93.463 179.675,93.890 180.039,94.082 180.309 C 94.273 180.579,94.538 180.800,94.669 180.800 C 94.801 180.800,95.454 181.353,96.121 182.030 C 96.788 182.706,97.335 183.156,97.337 183.030 C 97.340 182.903,97.430 182.933,97.537 183.096 C 97.645 183.259,98.103 183.581,98.554 183.813 C 99.005 184.044,99.665 184.661,100.021 185.183 C 100.376 185.706,100.907 186.211,101.200 186.305 C 101.493 186.399,101.890 186.699,102.082 186.972 C 102.273 187.244,102.552 187.467,102.701 187.467 C 103.034 187.467,103.627 188.038,103.670 188.400 C 103.688 188.547,103.979 188.732,104.318 188.812 C 104.656 188.892,104.933 189.130,104.933 189.342 C 104.933 189.553,105.233 189.872,105.600 190.050 C 105.967 190.229,106.526 190.650,106.843 190.987 C 109.599 193.918,110.135 194.400,110.638 194.400 C 110.963 194.400,111.200 194.571,111.200 194.806 C 111.200 195.029,111.500 195.348,111.867 195.515 C 112.233 195.682,112.533 195.915,112.533 196.033 C 112.533 196.151,112.962 196.539,113.486 196.895 C 114.010 197.251,114.426 197.645,114.409 197.771 C 114.392 197.897,114.625 198.039,114.927 198.086 C 115.228 198.133,115.416 198.267,115.344 198.383 C 115.272 198.500,115.450 198.810,115.740 199.072 C 116.029 199.335,116.267 199.477,116.267 199.390 C 116.267 199.302,116.885 199.823,117.642 200.548 C 118.398 201.273,119.105 201.867,119.213 201.867 C 119.321 201.867,119.479 202.146,119.565 202.488 C 119.722 203.113,120.912 203.861,121.334 203.600 C 121.459 203.522,121.639 203.702,121.733 203.999 C 121.827 204.296,122.255 204.720,122.684 204.942 C 123.112 205.164,123.434 205.490,123.398 205.666 C 123.362 205.843,123.603 206.029,123.933 206.079 C 124.263 206.129,124.533 206.354,124.533 206.578 C 124.533 206.803,124.863 207.306,125.267 207.697 C 125.670 208.088,126.527 209.035,127.171 209.800 C 129.577 212.661,133.777 213.942,135.048 212.204 C 135.206 211.988,135.605 211.725,135.935 211.621 C 136.264 211.516,136.669 211.169,136.835 210.849 C 137.000 210.529,137.330 210.045,137.568 209.773 C 137.805 209.502,138.124 208.842,138.275 208.307 C 138.432 207.754,138.719 207.333,138.942 207.333 C 139.157 207.333,139.333 207.188,139.333 207.011 C 139.333 206.834,139.963 206.107,140.733 205.395 C 141.503 204.683,142.133 203.975,142.133 203.820 C 142.133 203.665,142.490 203.133,142.927 202.636 C 143.417 202.079,143.665 201.555,143.576 201.267 C 143.496 201.010,143.559 200.785,143.715 200.767 C 143.872 200.748,144.150 200.718,144.333 200.700 C 144.517 200.682,144.670 200.547,144.674 200.400 C 144.683 200.057,145.314 198.990,145.325 199.299 C 145.330 199.427,145.512 199.384,145.730 199.202 C 145.949 199.021,146.062 198.766,145.981 198.636 C 145.900 198.506,146.153 198.278,146.543 198.130 C 146.933 197.981,147.311 197.633,147.384 197.355 C 147.456 197.077,147.754 196.787,148.044 196.711 C 148.335 196.635,148.638 196.324,148.718 196.020 C 148.797 195.716,149.014 195.467,149.198 195.467 C 149.631 195.467,150.058 194.944,150.175 194.270 C 150.225 193.979,150.597 193.459,151.000 193.113 C 151.403 192.768,151.731 192.347,151.729 192.176 C 151.727 192.001,151.613 192.041,151.467 192.267 C 151.302 192.522,151.207 192.549,151.204 192.340 C 151.202 192.161,151.551 191.832,151.981 191.610 C 152.411 191.388,152.839 190.965,152.932 190.670 C 153.026 190.375,153.277 190.133,153.491 190.133 C 153.705 190.133,153.994 189.833,154.133 189.467 C 154.273 189.100,154.573 188.800,154.800 188.800 C 155.027 188.800,155.327 188.500,155.467 188.133 C 155.606 187.767,155.906 187.467,156.133 187.467 C 156.361 187.467,156.655 187.181,156.788 186.832 C 156.921 186.483,157.516 185.673,158.111 185.032 C 158.706 184.391,159.195 183.717,159.197 183.533 C 159.199 183.350,159.333 183.200,159.495 183.200 C 159.658 183.200,159.724 183.026,159.642 182.814 C 159.552 182.578,159.703 182.361,160.030 182.257 C 160.325 182.164,160.698 181.797,160.859 181.444 C 161.020 181.090,161.324 180.800,161.534 180.800 C 161.745 180.800,161.982 180.551,162.061 180.246 C 162.141 179.942,162.490 179.585,162.836 179.453 C 163.213 179.310,163.467 178.995,163.467 178.673 C 163.467 178.376,163.587 178.118,163.733 178.100 C 163.880 178.082,164.150 178.052,164.333 178.033 C 164.517 178.015,164.669 177.880,164.671 177.733 C 164.673 177.587,164.770 177.317,164.886 177.133 C 165.003 176.950,165.015 176.800,164.913 176.800 C 164.811 176.800,165.044 176.551,165.431 176.247 C 165.817 175.943,166.133 175.523,166.133 175.314 C 166.133 175.105,166.300 174.933,166.505 174.933 C 166.862 174.933,167.330 174.214,167.242 173.800 C 167.219 173.690,167.320 173.600,167.467 173.600 C 167.613 173.600,167.733 173.420,167.733 173.200 C 167.733 172.980,167.916 172.800,168.140 172.800 C 168.364 172.800,168.655 172.516,168.787 172.169 C 169.085 171.385,170.104 170.287,170.759 170.045 C 171.029 169.946,171.310 169.636,171.383 169.357 C 171.456 169.078,171.744 168.790,172.023 168.717 C 172.302 168.644,172.609 168.363,172.705 168.092 C 172.801 167.821,173.094 167.360,173.357 167.067 C 173.620 166.773,173.868 166.413,173.909 166.267 C 173.950 166.120,174.312 165.724,174.712 165.387 C 175.113 165.050,175.379 164.614,175.303 164.418 C 175.227 164.218,175.527 163.804,175.983 163.479 C 176.432 163.159,176.800 162.752,176.800 162.574 C 176.800 162.396,177.455 161.580,178.256 160.759 C 179.057 159.939,179.627 159.173,179.523 159.058 C 179.419 158.942,179.470 158.926,179.637 159.021 C 180.068 159.267,182.013 156.815,181.919 156.144 C 181.856 155.697,181.892 155.671,182.117 156.000 C 182.361 156.355,182.392 156.355,182.396 155.997 C 182.398 155.776,182.640 155.445,182.933 155.262 C 183.227 155.079,183.467 154.778,183.467 154.594 C 183.467 154.410,183.733 154.141,184.058 153.997 C 184.383 153.852,184.731 153.433,184.831 153.067 C 184.932 152.700,185.025 152.494,185.040 152.609 C 185.074 152.877,188.800 149.161,188.800 148.859 C 188.800 148.735,189.160 148.288,189.600 147.867 C 190.040 147.445,190.400 146.980,190.400 146.832 C 190.400 146.685,190.226 146.798,190.013 147.082 C 189.641 147.581,189.632 147.578,189.780 146.992 C 189.907 146.487,190.645 145.845,191.200 145.755 C 191.273 145.743,191.306 145.650,191.272 145.548 C 191.238 145.446,191.568 145.108,192.005 144.797 C 192.442 144.485,192.800 144.073,192.800 143.880 C 192.800 143.687,193.043 143.465,193.339 143.388 C 193.635 143.310,194.006 142.880,194.162 142.431 C 194.319 141.983,194.544 141.642,194.663 141.674 C 194.783 141.707,194.891 141.643,194.906 141.532 C 194.940 141.260,196.181 139.860,197.400 138.718 C 197.950 138.203,198.398 137.650,198.396 137.490 C 198.394 137.331,198.267 137.380,198.115 137.600 C 197.886 137.930,197.853 137.907,197.922 137.467 C 197.972 137.145,198.251 136.898,198.624 136.845 C 199.030 136.788,199.338 136.485,199.519 135.965 C 199.671 135.529,199.860 135.238,199.940 135.317 C 200.160 135.538,200.815 134.907,200.648 134.636 C 200.567 134.506,200.820 134.278,201.210 134.130 C 201.599 133.981,201.978 133.633,202.050 133.355 C 202.123 133.077,202.414 132.789,202.697 132.715 C 202.980 132.641,203.341 132.210,203.498 131.757 C 203.656 131.304,203.894 130.933,204.026 130.933 C 204.158 130.933,204.267 130.800,204.267 130.636 C 204.267 130.473,204.747 129.918,205.333 129.404 C 205.920 128.890,206.398 128.334,206.396 128.168 C 206.394 128.002,206.276 128.047,206.133 128.267 C 205.991 128.487,205.875 128.547,205.875 128.400 C 205.875 127.916,206.312 127.433,206.827 127.347 C 207.105 127.300,207.306 127.135,207.272 126.979 C 207.238 126.823,207.568 126.441,208.005 126.130 C 208.442 125.818,208.800 125.406,208.800 125.213 C 208.800 125.020,209.049 124.797,209.353 124.718 C 209.657 124.638,209.968 124.335,210.044 124.044 C 210.120 123.754,210.410 123.456,210.688 123.384 C 210.966 123.311,211.301 122.969,211.432 122.624 C 211.563 122.279,212.158 121.524,212.753 120.947 C 213.348 120.369,213.782 119.813,213.719 119.710 C 213.655 119.607,213.791 119.451,214.020 119.363 C 214.297 119.256,214.380 119.023,214.267 118.668 C 214.171 118.366,214.221 118.119,214.382 118.100 C 214.539 118.082,214.817 118.052,215.000 118.033 C 215.183 118.015,215.336 117.880,215.340 117.733 C 215.349 117.391,215.981 116.323,215.992 116.633 C 215.996 116.761,216.179 116.717,216.397 116.536 C 216.615 116.355,216.728 116.100,216.648 115.969 C 216.567 115.839,216.820 115.611,217.210 115.463 C 217.599 115.315,217.978 114.966,218.050 114.688 C 218.123 114.410,218.410 114.123,218.688 114.050 C 218.966 113.978,219.303 113.632,219.436 113.282 C 219.569 112.931,219.870 112.485,220.106 112.290 C 220.341 112.094,220.533 111.732,220.533 111.485 C 220.533 111.237,221.553 110.057,222.800 108.861 C 224.047 107.666,225.067 106.563,225.067 106.411 C 225.067 106.258,225.250 106.133,225.473 106.133 C 225.697 106.133,225.994 105.833,226.133 105.467 C 226.273 105.100,226.573 104.800,226.800 104.800 C 227.027 104.800,227.338 104.470,227.491 104.067 C 227.644 103.663,228.010 103.076,228.304 102.762 C 228.598 102.448,228.866 102.004,228.900 101.775 C 228.933 101.546,229.255 101.074,229.614 100.724 C 229.973 100.375,230.678 99.596,231.180 98.994 C 231.683 98.391,232.218 97.921,232.368 97.949 C 232.519 97.977,232.648 97.822,232.655 97.604 C 232.661 97.386,232.997 97.049,233.400 96.856 C 233.803 96.662,234.133 96.289,234.133 96.026 C 234.133 95.763,234.805 94.876,235.625 94.056 C 236.446 93.235,237.044 92.446,236.955 92.302 C 236.866 92.159,237.155 91.783,237.597 91.469 C 238.039 91.154,238.400 90.725,238.400 90.515 C 238.400 90.305,238.573 90.133,238.785 90.133 C 238.997 90.133,239.327 89.912,239.518 89.642 C 239.710 89.372,240.137 89.008,240.467 88.833 C 240.797 88.658,241.067 88.302,241.067 88.043 C 241.067 87.783,241.510 87.097,242.052 86.519 C 244.655 83.737,245.086 83.148,244.914 82.606 C 244.815 82.295,244.849 82.132,244.995 82.222 C 245.282 82.400,246.400 81.692,246.400 81.333 C 246.400 81.203,247.000 80.506,247.733 79.784 C 248.467 79.062,249.067 78.354,249.067 78.210 C 249.067 78.067,249.848 77.179,250.803 76.238 C 251.758 75.297,252.594 74.242,252.661 73.894 C 252.728 73.546,252.817 73.241,252.858 73.217 C 253.925 72.582,254.400 72.203,254.400 71.985 C 254.400 71.677,255.674 70.413,256.429 69.971 C 256.706 69.809,256.978 69.449,257.032 69.171 C 257.132 68.664,258.338 67.076,258.639 67.056 C 259.232 67.016,260.800 65.149,260.800 64.484 C 260.800 64.071,260.927 63.733,261.082 63.733 C 261.238 63.733,261.279 63.595,261.175 63.425 C 261.066 63.249,261.101 63.189,261.256 63.286 C 261.704 63.563,262.470 62.507,262.273 61.886 C 262.022 61.095,260.661 61.127,260.236 61.933 C 260.062 62.263,259.824 62.597,259.705 62.675 C 259.131 63.054,253.824 68.381,253.596 68.808 C 253.451 69.078,253.333 69.527,253.333 69.806 C 253.333 70.089,253.038 70.449,252.667 70.618 C 252.300 70.785,252.000 71.095,252.000 71.308 C 252.000 71.614,249.387 74.316,245.704 77.819 C 245.500 78.013,245.333 78.454,245.333 78.799 C 245.333 79.143,245.003 79.782,244.600 80.218 C 243.280 81.644,242.169 82.783,241.075 83.827 C 240.484 84.392,240.000 84.943,240.000 85.051 C 240.000 85.159,239.700 85.384,239.333 85.551 C 238.861 85.767,238.667 86.066,238.667 86.577 C 238.667 87.093,238.288 87.663,237.333 88.583 C 236.600 89.290,236.000 89.960,236.000 90.072 C 236.000 90.184,234.800 91.454,233.333 92.894 C 231.357 94.834,230.667 95.685,230.667 96.182 C 230.667 96.838,229.553 98.121,228.491 98.689 C 228.221 98.834,228.000 99.109,228.000 99.300 C 228.000 99.491,226.853 100.735,225.452 102.065 C 223.664 103.762,222.829 104.757,222.651 105.402 C 222.489 105.988,221.914 106.737,221.065 107.468 C 220.333 108.099,219.733 108.748,219.733 108.911 C 219.733 109.074,218.593 110.331,217.200 111.705 C 215.219 113.660,214.667 114.364,214.667 114.938 C 214.667 115.427,214.444 115.818,214.000 116.109 C 213.633 116.349,213.333 116.667,213.333 116.814 C 213.333 116.962,212.583 117.797,211.667 118.668 C 210.183 120.080,209.385 120.866,207.455 122.822 C 207.153 123.127,206.870 123.716,206.826 124.130 C 206.779 124.573,206.455 125.094,206.040 125.397 C 205.651 125.680,205.333 126.034,205.333 126.183 C 205.333 126.333,204.133 127.619,202.667 129.041 C 200.383 131.255,200.000 131.750,200.000 132.480 C 200.000 132.949,199.890 133.333,199.756 133.333 C 199.450 133.333,197.333 135.290,197.333 135.573 C 197.333 135.687,196.211 136.885,194.840 138.234 C 192.881 140.161,192.308 140.895,192.164 141.662 C 192.057 142.232,191.791 142.698,191.524 142.785 C 191.272 142.867,190.467 143.613,189.733 144.443 C 189.000 145.273,187.470 146.874,186.333 148.001 C 184.693 149.628,184.267 150.211,184.267 150.831 C 184.267 151.418,183.994 151.842,183.168 152.539 C 182.564 153.049,181.934 153.628,181.768 153.826 C 181.602 154.023,180.287 155.371,178.845 156.822 C 176.453 159.227,176.237 159.526,176.392 160.231 C 176.543 160.918,176.470 161.037,175.744 161.290 C 175.294 161.446,174.846 161.790,174.747 162.054 C 174.648 162.318,173.150 163.927,171.417 165.630 C 169.014 167.991,168.267 168.888,168.267 169.411 C 168.267 169.869,168.000 170.287,167.467 170.667 C 167.027 170.980,166.667 171.385,166.667 171.566 C 166.667 171.747,165.467 173.010,164.000 174.374 C 162.130 176.112,161.333 177.034,161.333 177.459 C 161.333 177.842,160.867 178.492,160.067 179.224 C 159.370 179.861,158.609 180.687,158.376 181.061 C 157.927 181.779,156.195 183.573,154.598 184.975 C 154.071 185.437,153.524 186.234,153.383 186.744 C 153.147 187.596,151.669 189.333,151.178 189.333 C 151.063 189.333,150.892 189.576,150.798 189.872 C 150.704 190.168,149.496 191.527,148.114 192.892 C 146.249 194.732,145.600 195.548,145.600 196.051 C 145.600 196.538,145.185 197.098,144.135 198.031 C 143.329 198.747,142.669 199.428,142.668 199.544 C 142.667 199.661,141.467 200.928,140.000 202.361 C 138.247 204.074,137.333 205.165,137.333 205.544 C 137.333 205.865,137.038 206.315,136.667 206.558 C 136.300 206.798,136.000 207.108,136.000 207.245 C 136.000 207.592,132.962 210.667,132.620 210.667 C 132.467 210.667,131.883 210.129,131.323 209.472 C 130.763 208.814,129.932 208.153,129.476 208.003 C 129.013 207.850,127.478 206.559,125.991 205.071 C 124.529 203.609,123.205 202.410,123.048 202.406 C 122.891 202.403,121.970 201.620,121.003 200.667 C 119.498 199.183,119.106 198.933,118.289 198.933 C 117.651 198.933,117.333 198.810,117.333 198.563 C 117.333 198.359,116.701 197.549,115.929 196.763 C 115.157 195.977,114.183 194.883,113.764 194.333 C 113.346 193.783,112.878 193.333,112.724 193.333 C 112.570 193.333,112.255 193.157,112.022 192.940 C 110.291 191.330,109.333 190.321,109.333 190.106 C 109.333 189.968,109.036 189.720,108.672 189.554 C 108.308 189.388,107.940 189.031,107.854 188.760 C 107.736 188.389,107.434 188.267,106.640 188.267 C 105.888 188.267,105.533 188.135,105.408 187.810 C 105.204 187.280,103.425 185.334,103.143 185.334 C 103.038 185.334,102.112 184.493,101.085 183.467 C 99.586 181.967,99.057 181.600,98.401 181.600 C 97.934 181.600,97.520 181.435,97.436 181.215 C 97.164 180.509,94.699 177.826,93.168 176.571 C 91.693 175.363,90.400 174.110,90.400 173.891 C 90.400 173.769,89.974 173.601,89.454 173.516 C 88.538 173.368,87.184 172.238,86.837 171.333 C 86.751 171.109,86.407 170.820,86.074 170.691 C 85.740 170.562,84.387 169.367,83.067 168.036 C 81.025 165.976,80.536 165.614,79.792 165.607 C 79.216 165.603,78.857 165.444,78.741 165.143 C 78.549 164.642,76.765 162.668,76.504 162.667 C 76.258 162.666,73.067 159.403,73.067 159.152 C 73.067 159.032,72.583 158.933,71.992 158.933 C 71.245 158.933,70.866 158.801,70.750 158.500 C 70.578 158.051,68.866 156.091,67.780 155.099 C 67.440 154.788,66.147 153.532,64.908 152.308 L 62.656 150.083 63.461 149.166 C 63.904 148.661,64.267 148.001,64.267 147.699 C 64.267 147.374,64.485 147.093,64.800 147.011 C 65.093 146.934,65.333 146.762,65.333 146.630 C 65.333 146.497,65.993 145.749,66.800 144.968 C 67.607 144.186,68.267 143.423,68.267 143.271 C 68.267 143.120,69.107 142.161,70.133 141.140 C 71.160 140.119,72.000 139.083,72.000 138.836 C 72.000 138.590,72.643 137.761,73.428 136.994 C 74.214 136.227,74.904 135.457,74.962 135.282 C 75.019 135.108,76.237 133.768,77.667 132.305 C 79.097 130.842,80.267 129.445,80.267 129.201 C 80.267 128.758,82.246 126.667,82.666 126.667 C 82.789 126.667,83.005 126.337,83.147 125.933 C 83.385 125.255,83.420 125.240,83.614 125.733 C 83.877 126.406,85.391 127.912,86.642 128.747 C 87.169 129.098,87.840 129.610,88.133 129.885 C 90.218 131.837,90.497 132.037,90.969 131.913 C 91.290 131.830,91.574 131.969,91.750 132.297 C 92.063 132.883,95.420 136.266,95.690 136.268 C 95.867 136.269,96.544 136.903,98.526 138.921 C 99.109 139.514,99.820 140.000,100.105 140.000 C 100.406 140.000,101.493 140.900,102.683 142.133 C 103.814 143.307,104.843 144.267,104.970 144.267 C 105.291 144.267,107.921 146.821,108.268 147.469 C 108.452 147.813,108.826 148.000,109.332 148.000 C 110.124 148.000,110.649 148.418,111.926 150.067 C 112.295 150.543,112.736 150.933,112.906 150.933 C 113.175 150.933,115.483 153.083,116.477 154.260 C 116.666 154.484,117.112 154.667,117.467 154.667 C 118.120 154.667,118.707 155.160,119.926 156.733 C 120.295 157.210,120.751 157.600,120.940 157.600 C 121.130 157.600,122.419 158.740,123.805 160.133 C 125.719 162.056,126.496 162.667,127.030 162.667 C 127.417 162.667,127.733 162.777,127.733 162.912 C 127.733 163.478,129.847 165.333,130.493 165.333 C 131.115 165.333,131.350 165.172,132.185 164.170 C 132.360 163.960,132.632 163.745,132.790 163.692 C 132.947 163.640,133.124 163.211,133.184 162.739 C 133.313 161.719,133.519 161.337,133.949 161.322 C 134.124 161.315,134.987 160.535,135.867 159.588 C 136.747 158.640,138.637 156.681,140.067 155.234 C 141.794 153.486,142.667 152.404,142.667 152.008 C 142.667 151.622,143.395 150.677,144.733 149.326 C 145.870 148.179,147.340 146.624,148.000 145.871 C 149.793 143.824,149.884 143.733,150.152 143.733 C 150.289 143.733,150.400 143.249,150.400 142.658 C 150.400 141.846,150.524 141.536,150.908 141.391 C 151.577 141.139,154.931 138.110,154.942 137.748 C 154.954 137.354,156.181 136.000,156.526 136.000 C 156.683 136.000,156.942 135.713,157.102 135.363 C 157.261 135.012,157.679 134.595,158.029 134.435 C 158.464 134.237,158.667 133.924,158.667 133.449 C 158.667 132.947,159.076 132.374,160.133 131.397 C 160.940 130.651,161.600 129.908,161.600 129.746 C 161.600 129.584,161.810 129.254,162.067 129.011 C 162.323 128.769,162.669 128.412,162.835 128.219 C 163.001 128.025,163.631 127.449,164.235 126.939 C 164.998 126.295,165.333 125.802,165.333 125.325 C 165.333 124.671,166.850 122.682,167.369 122.654 C 167.496 122.648,167.988 122.198,168.462 121.654 C 169.793 120.129,170.657 119.142,171.445 118.248 C 171.842 117.797,172.367 117.352,172.612 117.258 C 172.877 117.156,173.127 116.653,173.229 116.010 C 173.324 115.418,173.496 114.933,173.612 114.933 C 173.949 114.933,176.000 112.873,176.000 112.535 C 176.000 112.276,178.183 110.040,179.591 108.856 C 179.816 108.667,180.000 108.165,180.000 107.741 C 180.000 107.246,180.167 106.911,180.467 106.807 C 180.723 106.718,181.353 106.163,181.867 105.574 C 182.380 104.986,183.670 103.606,184.733 102.508 C 186.053 101.146,186.667 100.306,186.667 99.865 C 186.667 99.488,186.893 99.098,187.210 98.928 C 187.811 98.606,189.581 96.780,189.593 96.470 C 189.605 96.130,191.506 94.072,192.930 92.856 C 193.152 92.667,193.333 92.266,193.333 91.966 C 193.333 91.645,193.940 90.858,194.800 90.063 C 195.607 89.318,196.267 88.602,196.267 88.474 C 196.267 88.345,197.407 87.127,198.800 85.767 C 200.528 84.081,201.333 83.103,201.333 82.690 C 201.333 82.300,201.852 81.606,202.800 80.730 C 203.607 79.984,204.267 79.275,204.267 79.154 C 204.267 78.857,204.960 78.092,206.907 76.240 C 207.549 75.629,208.002 74.952,208.004 74.600 C 208.006 74.205,208.458 73.635,209.324 72.933 C 210.048 72.347,210.646 71.720,210.653 71.541 C 210.661 71.362,211.867 70.008,213.333 68.533 C 214.914 66.943,216.000 65.636,216.000 65.322 C 216.000 65.031,216.605 64.165,217.344 63.397 C 222.337 58.208,222.667 57.824,222.667 57.200 C 222.667 56.844,222.881 56.437,223.144 56.297 C 223.930 55.876,225.600 54.252,225.600 53.909 C 225.600 53.733,226.440 52.762,227.467 51.752 C 228.493 50.741,229.333 49.710,229.333 49.459 C 229.333 49.209,230.293 48.050,231.467 46.885 C 232.640 45.720,233.600 44.678,233.600 44.570 C 233.600 44.375,235.778 42.082,237.172 40.808 L 237.893 40.149 239.162 41.507 C 239.860 42.254,240.682 42.944,240.989 43.042 C 241.472 43.195,243.417 44.987,244.477 46.255 C 244.666 46.482,245.130 46.667,245.508 46.667 C 246.145 46.667,248.000 48.288,248.000 48.845 C 248.000 48.960,248.330 49.224,248.733 49.434 C 249.137 49.643,250.265 50.607,251.240 51.574 C 252.216 52.542,253.212 53.333,253.453 53.333 C 253.694 53.333,254.863 54.263,256.051 55.400 C 257.239 56.537,258.810 58.037,259.543 58.733 C 261.223 60.330,261.997 60.409,262.224 59.009 C 262.457 57.575,260.959 55.808,260.008 56.395 C 259.890 56.468,259.732 56.289,259.656 55.998 C 259.580 55.707,259.296 55.385,259.025 55.282 C 258.755 55.179,258.315 54.819,258.047 54.481 C 257.780 54.143,257.394 53.867,257.189 53.867 C 256.980 53.867,256.879 53.703,256.960 53.494 C 257.094 53.144,256.660 52.680,256.191 52.671 C 256.076 52.669,255.835 52.371,255.654 52.009 C 255.468 51.635,254.953 51.244,254.462 51.103 C 253.986 50.967,253.037 50.311,252.353 49.646 C 251.669 48.981,251.197 48.579,251.304 48.752 C 251.411 48.925,251.371 49.067,251.216 49.067 C 251.060 49.067,250.933 48.948,250.933 48.802 C 250.933 48.322,249.780 47.200,249.285 47.200 C 249.018 47.200,248.830 47.098,248.867 46.974 C 248.977 46.601,246.813 44.580,246.115 44.405 C 245.759 44.315,245.196 43.827,244.864 43.321 C 244.533 42.814,244.096 42.400,243.893 42.400 C 243.690 42.400,243.455 42.220,243.370 42.000 C 243.286 41.780,243.033 41.600,242.808 41.600 C 242.584 41.600,242.400 41.416,242.400 41.192 C 242.400 40.967,242.190 40.704,241.933 40.608 C 241.677 40.512,240.952 39.892,240.324 39.231 C 239.695 38.570,239.035 38.004,238.857 37.973 C 238.679 37.943,238.353 37.857,238.133 37.782 C 237.913 37.707,237.403 37.745,237.000 37.867 M333.200 63.763 C 331.880 65.075,330.784 66.294,330.764 66.474 C 330.744 66.653,330.714 67.062,330.697 67.382 C 330.680 67.707,330.437 68.037,330.147 68.129 C 329.861 68.220,329.559 68.510,329.475 68.773 C 329.392 69.037,329.025 69.388,328.662 69.554 C 328.298 69.720,328.000 70.034,328.000 70.252 C 328.000 70.470,327.760 70.776,327.467 70.933 C 327.173 71.090,326.933 71.395,326.933 71.609 C 326.933 71.824,326.823 72.000,326.689 72.000 C 325.808 72.000,324.205 74.121,324.380 75.056 C 324.549 75.954,324.506 76.037,323.747 76.302 C 323.300 76.458,322.933 76.754,322.933 76.959 C 322.933 77.165,322.748 77.333,322.521 77.333 C 322.294 77.333,321.919 77.663,321.687 78.067 C 321.455 78.470,320.735 79.220,320.086 79.733 C 319.034 80.567,318.924 80.756,319.061 81.505 C 319.198 82.256,319.129 82.373,318.403 82.626 C 317.958 82.781,317.516 83.108,317.422 83.353 C 317.329 83.597,316.837 84.190,316.330 84.670 C 315.824 85.150,315.272 85.684,315.104 85.856 C 314.937 86.029,314.235 86.752,313.544 87.464 C 312.444 88.597,312.299 88.879,312.376 89.730 C 312.516 91.293,312.968 91.492,313.896 90.400 C 315.163 88.911,315.200 88.850,315.200 88.278 C 315.200 87.978,315.328 87.733,315.484 87.733 C 315.957 87.733,319.564 83.937,320.109 82.867 C 320.388 82.317,320.718 81.867,320.842 81.867 C 320.966 81.867,321.076 81.537,321.088 81.133 C 321.099 80.730,321.169 80.549,321.243 80.731 C 321.475 81.306,322.400 80.594,322.400 79.842 C 322.400 79.471,322.500 79.230,322.623 79.306 C 322.935 79.499,325.935 75.793,325.732 75.465 C 325.641 75.317,325.784 75.114,326.050 75.013 C 326.694 74.769,327.215 74.237,327.010 74.032 C 326.919 73.941,327.024 73.867,327.244 73.867 C 327.463 73.867,327.801 73.572,327.993 73.213 C 328.186 72.853,328.416 72.567,328.505 72.578 C 329.011 72.637,329.149 72.492,328.800 72.267 C 328.444 72.037,328.444 72.007,328.800 72.000 C 329.156 71.993,329.156 71.963,328.800 71.733 C 328.472 71.521,328.500 71.474,328.959 71.471 C 329.558 71.466,330.400 70.702,330.400 70.163 C 330.400 69.983,330.506 69.901,330.636 69.981 C 330.766 70.062,331.021 69.949,331.202 69.730 C 331.384 69.512,331.427 69.333,331.299 69.332 C 331.171 69.332,331.460 69.092,331.940 68.799 C 332.420 68.506,332.935 67.996,333.085 67.667 C 333.533 66.676,334.125 65.717,334.129 65.975 C 334.132 66.107,334.373 65.999,334.667 65.733 C 334.960 65.468,335.200 65.089,335.200 64.892 C 335.200 64.695,335.320 64.533,335.467 64.533 C 335.613 64.533,335.733 64.401,335.733 64.238 C 335.733 64.076,336.033 63.587,336.400 63.151 C 337.231 62.164,337.230 62.027,336.387 61.643 C 335.561 61.266,336.023 60.959,333.200 63.763 M309.991 92.399 C 309.043 93.352,308.267 94.244,308.267 94.381 C 308.267 94.519,308.037 94.703,307.757 94.792 C 307.477 94.881,307.054 95.249,306.818 95.610 C 306.581 95.971,306.210 96.267,305.994 96.267 C 305.764 96.267,305.598 96.517,305.596 96.867 C 305.589 98.025,305.280 98.542,303.979 99.577 C 303.257 100.151,302.667 100.718,302.667 100.837 C 302.667 101.126,299.458 104.267,299.163 104.267 C 299.037 104.267,298.933 104.718,298.933 105.269 C 298.933 106.109,298.759 106.422,297.855 107.202 C 297.261 107.714,296.631 108.293,296.455 108.488 C 296.278 108.684,295.563 109.409,294.867 110.100 C 293.875 111.083,293.600 111.543,293.600 112.219 C 293.600 112.775,293.444 113.143,293.162 113.252 C 292.731 113.417,289.333 116.688,289.333 116.937 C 289.333 117.008,288.733 117.643,288.000 118.350 C 287.039 119.276,286.667 119.839,286.667 120.364 C 286.667 121.098,285.672 122.226,284.747 122.540 C 284.498 122.625,284.228 122.898,284.148 123.147 C 284.008 123.579,283.338 124.322,281.215 126.400 C 280.691 126.913,280.155 127.713,280.025 128.178 C 279.895 128.643,279.236 129.552,278.561 130.199 C 277.886 130.846,277.333 131.516,277.333 131.688 C 277.333 131.859,277.243 132.001,277.133 132.002 C 276.930 132.004,275.570 133.300,274.129 134.864 C 273.691 135.340,273.333 135.990,273.333 136.310 C 273.333 136.657,272.770 137.449,271.933 138.277 C 271.163 139.040,270.133 140.099,269.644 140.632 C 269.155 141.164,268.645 141.600,268.511 141.600 C 268.377 141.600,268.267 142.016,268.267 142.524 C 268.267 143.159,268.108 143.533,267.759 143.720 C 267.109 144.067,264.000 147.169,264.000 147.470 C 264.000 147.595,263.400 148.265,262.667 148.959 C 261.788 149.791,261.333 150.440,261.333 150.862 C 261.333 151.278,260.845 151.990,259.933 152.901 C 259.163 153.670,258.162 154.712,257.708 155.217 C 257.254 155.721,256.384 156.588,255.775 157.144 C 255.074 157.783,254.667 158.386,254.667 158.784 C 254.667 159.386,253.022 161.333,252.514 161.333 C 252.385 161.333,252.109 161.665,251.899 162.071 C 251.689 162.477,251.087 163.227,250.561 163.738 C 249.850 164.429,249.605 164.890,249.603 165.542 C 249.601 166.133,249.448 166.470,249.133 166.582 C 248.877 166.673,248.366 167.059,247.999 167.440 C 247.631 167.821,246.956 168.443,246.499 168.821 C 246.042 169.199,245.520 169.784,245.340 170.121 C 245.160 170.458,244.545 171.163,243.973 171.689 C 243.237 172.366,242.933 172.864,242.933 173.396 C 242.933 173.927,242.758 174.215,242.333 174.382 C 242.003 174.511,241.288 175.138,240.744 175.775 C 240.200 176.412,239.180 177.613,238.478 178.443 C 237.775 179.273,237.093 179.963,236.963 179.976 C 236.582 180.014,236.018 180.887,236.001 181.467 C 235.983 182.058,234.754 183.525,233.890 183.988 C 233.584 184.151,233.333 184.439,233.333 184.627 C 233.333 184.816,232.433 185.845,231.333 186.916 C 229.814 188.395,229.333 189.036,229.333 189.586 C 229.333 190.085,229.126 190.421,228.667 190.667 C 228.300 190.863,228.000 191.154,228.000 191.315 C 228.000 191.475,227.160 192.435,226.133 193.448 C 224.558 195.003,224.267 195.430,224.267 196.187 C 224.267 196.781,224.115 197.141,223.819 197.255 C 223.342 197.438,221.333 199.299,221.333 199.558 C 221.333 199.643,220.493 200.518,219.467 201.504 C 217.885 203.023,217.600 203.432,217.600 204.188 C 217.600 204.866,217.456 205.135,217.000 205.312 C 216.670 205.440,215.740 206.294,214.933 207.209 C 213.169 209.213,212.660 209.719,211.550 210.579 C 211.080 210.944,210.622 211.597,210.524 212.043 C 210.392 212.644,210.098 212.953,209.373 213.253 C 208.838 213.476,208.304 213.824,208.187 214.029 C 207.928 214.479,207.200 214.523,207.200 214.088 C 207.200 213.659,204.878 211.467,204.424 211.467 C 204.222 211.467,203.309 210.735,202.396 209.841 C 201.482 208.948,200.392 208.097,199.974 207.951 C 199.264 207.703,198.363 206.909,193.149 201.933 C 191.935 200.776,190.895 200.000,190.556 200.000 C 190.195 200.000,189.606 199.516,188.932 198.665 C 188.350 197.930,187.644 197.256,187.363 197.167 C 187.083 197.078,186.018 196.179,184.999 195.169 C 183.979 194.160,182.957 193.333,182.727 193.333 C 182.322 193.333,179.834 190.878,179.012 189.667 C 178.788 189.337,178.425 189.067,178.205 189.067 C 177.985 189.067,176.889 188.183,175.769 187.103 C 174.650 186.023,173.403 185.060,173.000 184.964 C 171.971 184.719,172.038 184.573,174.115 182.533 C 175.131 181.534,176.038 180.419,176.129 180.055 C 176.220 179.692,176.889 178.798,177.614 178.068 C 178.340 177.339,178.933 176.571,178.933 176.363 C 178.933 176.154,179.109 175.916,179.323 175.834 C 179.538 175.751,179.786 175.455,179.874 175.175 C 179.963 174.896,180.166 174.667,180.324 174.667 C 180.841 174.667,184.000 171.199,184.000 170.632 C 184.000 170.312,184.607 169.524,185.467 168.730 C 186.273 167.984,186.933 167.238,186.933 167.071 C 186.933 166.905,187.737 166.007,188.718 165.078 C 190.300 163.579,190.497 163.284,190.443 162.483 C 190.390 161.692,190.484 161.543,191.191 161.297 C 191.684 161.125,192.013 160.817,192.033 160.507 C 192.052 160.228,192.079 159.790,192.094 159.533 C 192.116 159.170,191.947 159.086,191.331 159.153 C 190.462 159.249,189.867 159.633,189.866 160.099 C 189.865 160.265,189.325 160.995,188.666 161.722 C 188.006 162.449,187.467 163.131,187.467 163.238 C 187.467 163.344,187.244 163.501,186.972 163.588 C 186.700 163.674,186.250 164.186,185.972 164.725 C 185.694 165.264,184.657 166.511,183.667 167.496 C 182.677 168.480,181.866 169.446,181.865 169.643 C 181.864 169.991,181.563 170.331,179.069 172.800 C 178.402 173.460,177.786 174.270,177.699 174.600 C 177.613 174.930,177.364 175.200,177.146 175.200 C 176.928 175.200,176.685 175.449,176.605 175.754 C 176.526 176.058,176.177 176.415,175.830 176.547 C 175.446 176.693,175.200 177.004,175.200 177.342 C 175.200 177.648,175.084 177.827,174.943 177.739 C 174.802 177.652,174.436 177.855,174.130 178.190 C 173.825 178.526,173.340 179.044,173.054 179.343 C 172.768 179.641,172.533 180.003,172.533 180.146 C 172.533 180.290,172.270 180.525,171.948 180.670 C 171.626 180.815,171.272 181.279,171.162 181.702 C 171.051 182.124,170.719 182.727,170.423 183.042 C 168.767 184.805,170.028 188.471,172.446 188.924 C 172.997 189.028,173.752 189.403,174.124 189.759 C 175.614 191.184,175.888 191.401,176.415 191.565 C 176.717 191.660,177.471 192.269,178.092 192.920 C 178.712 193.571,179.459 194.180,179.752 194.273 C 180.044 194.365,180.556 194.702,180.888 195.021 C 181.220 195.339,181.907 195.974,182.413 196.430 C 182.919 196.887,183.453 197.463,183.600 197.710 C 183.747 197.957,184.220 198.196,184.652 198.241 C 185.150 198.293,185.532 198.535,185.696 198.901 C 185.837 199.218,186.234 199.549,186.577 199.635 C 186.920 199.721,187.200 199.954,187.200 200.153 C 187.200 200.352,187.470 200.657,187.800 200.831 C 188.130 201.004,188.460 201.219,188.533 201.307 C 188.607 201.395,189.230 201.919,189.919 202.472 C 190.607 203.026,191.540 203.847,191.991 204.299 C 192.482 204.790,192.973 205.057,193.214 204.965 C 193.479 204.863,193.703 205.037,193.869 205.472 C 194.007 205.836,194.224 206.133,194.350 206.133 C 194.752 206.133,196.533 207.786,196.533 208.158 C 196.533 208.567,197.446 209.132,197.698 208.880 C 197.791 208.787,197.867 208.967,197.867 209.280 C 197.867 209.592,198.116 209.982,198.422 210.145 C 199.358 210.646,202.958 214.482,203.334 215.379 C 204.040 217.063,208.644 217.657,209.719 216.202 C 209.873 215.993,210.322 215.742,210.716 215.644 C 211.109 215.546,211.505 215.232,211.596 214.946 C 211.686 214.661,211.988 214.355,212.267 214.267 C 212.545 214.178,212.854 213.842,212.953 213.520 C 213.052 213.197,213.669 212.301,214.324 211.529 C 215.370 210.296,215.629 209.825,215.713 209.000 C 215.724 208.890,215.916 208.800,216.140 208.800 C 216.364 208.800,216.654 208.516,216.786 208.170 C 216.918 207.823,217.275 207.474,217.580 207.395 C 217.961 207.295,218.133 207.034,218.133 206.558 C 218.133 206.178,218.283 205.866,218.467 205.866 C 218.814 205.865,220.800 203.565,220.800 203.163 C 220.800 203.037,220.931 202.933,221.091 202.933 C 221.580 202.933,222.386 201.762,222.237 201.267 C 222.134 200.923,222.249 200.800,222.674 200.800 C 223.021 200.800,223.304 200.593,223.386 200.279 C 223.461 199.993,223.810 199.570,224.161 199.340 C 224.513 199.109,224.800 198.771,224.800 198.587 C 224.800 198.403,225.640 197.419,226.667 196.400 C 227.693 195.381,228.533 194.394,228.533 194.207 C 228.533 194.020,228.660 193.867,228.816 193.867 C 228.971 193.867,229.027 193.752,228.941 193.612 C 228.854 193.471,229.082 193.161,229.448 192.921 C 229.813 192.682,230.181 192.269,230.265 192.005 C 230.349 191.741,230.654 191.463,230.942 191.387 C 231.248 191.307,231.467 191.023,231.467 190.705 C 231.467 190.405,231.625 190.064,231.819 189.947 C 232.419 189.584,234.174 187.509,234.236 187.089 C 234.268 186.871,234.588 186.398,234.947 186.038 C 235.306 185.678,235.900 185.039,236.267 184.619 C 236.633 184.198,237.263 183.644,237.667 183.388 C 238.070 183.131,238.400 182.790,238.400 182.631 C 238.400 182.471,238.903 181.740,239.519 181.005 C 240.134 180.270,240.654 179.443,240.674 179.168 C 240.716 178.591,240.698 178.609,241.667 178.193 C 242.070 178.020,242.400 177.715,242.400 177.515 C 242.400 177.316,242.700 177.016,243.067 176.849 C 243.463 176.668,243.733 176.322,243.733 175.997 C 243.733 175.696,243.902 175.385,244.109 175.306 C 244.315 175.227,244.629 174.812,244.807 174.384 C 244.984 173.957,245.229 173.669,245.351 173.744 C 245.539 173.861,246.310 172.795,246.178 172.600 C 245.959 172.275,246.253 171.764,246.805 171.513 C 247.175 171.344,247.592 170.904,247.733 170.535 C 247.873 170.165,248.081 169.894,248.194 169.931 C 248.307 169.969,248.426 169.906,248.457 169.790 C 248.549 169.455,249.160 168.919,249.673 168.724 C 249.933 168.626,250.221 168.333,250.314 168.073 C 250.407 167.813,250.884 167.100,251.375 166.488 C 251.865 165.877,252.267 165.260,252.267 165.117 C 252.267 164.974,252.445 164.789,252.662 164.705 C 252.880 164.622,252.995 164.390,252.919 164.191 C 252.837 163.977,253.060 163.701,253.462 163.517 C 253.837 163.346,254.259 162.904,254.399 162.535 C 254.540 162.165,254.748 161.894,254.861 161.931 C 254.974 161.969,255.088 161.897,255.114 161.771 C 255.140 161.645,255.590 161.251,256.114 160.895 C 256.641 160.537,257.067 160.023,257.067 159.744 C 257.067 159.468,257.556 158.823,258.153 158.311 C 259.122 157.483,259.371 157.063,259.448 156.133 C 259.460 155.987,259.842 155.655,260.296 155.397 C 260.830 155.093,261.068 154.787,260.969 154.530 C 260.879 154.296,260.969 154.133,261.189 154.133 C 261.394 154.133,261.785 153.863,262.058 153.533 C 262.331 153.203,262.790 152.800,263.077 152.638 C 263.365 152.476,263.644 152.120,263.697 151.847 C 263.751 151.574,264.066 150.987,264.397 150.542 C 264.728 150.097,264.955 149.613,264.901 149.467 C 264.848 149.320,265.163 148.996,265.602 148.746 C 266.041 148.496,266.400 148.106,266.400 147.879 C 266.400 147.652,266.534 147.467,266.698 147.467 C 267.012 147.467,269.067 145.520,269.067 145.224 C 269.067 145.080,270.491 143.135,271.469 141.945 C 271.614 141.767,271.733 141.437,271.733 141.211 C 271.733 140.985,271.920 140.800,272.147 140.800 C 272.375 140.800,272.689 140.434,272.845 139.986 C 273.001 139.539,273.193 139.238,273.273 139.317 C 273.480 139.524,274.154 138.915,273.997 138.662 C 273.926 138.547,274.227 138.327,274.667 138.173 C 275.107 138.020,275.467 137.703,275.467 137.469 C 275.467 137.235,276.007 136.467,276.667 135.761 C 277.327 135.055,277.867 134.340,277.867 134.172 C 277.867 134.004,277.987 133.867,278.133 133.867 C 278.280 133.867,278.386 133.777,278.368 133.667 C 278.282 133.122,278.437 132.800,278.785 132.800 C 278.997 132.800,279.329 132.470,279.522 132.067 C 279.716 131.663,280.052 131.328,280.270 131.321 C 280.488 131.315,280.638 131.167,280.602 130.994 C 280.566 130.820,280.888 130.497,281.316 130.275 C 281.745 130.054,282.178 129.601,282.278 129.270 C 282.379 128.938,282.718 128.387,283.031 128.045 C 283.344 127.703,283.540 127.391,283.467 127.351 C 283.393 127.311,283.727 126.946,284.208 126.542 C 284.829 126.019,285.037 125.660,284.924 125.303 C 284.802 124.919,284.897 124.800,285.324 124.800 C 285.632 124.800,285.963 124.593,286.060 124.339 C 286.289 123.744,287.744 122.289,288.339 122.060 C 288.593 121.963,288.800 121.658,288.800 121.383 C 288.800 120.941,289.019 120.593,290.128 119.278 C 290.278 119.101,290.400 118.771,290.400 118.545 C 290.400 118.318,290.584 118.133,290.808 118.133 C 291.033 118.133,291.296 117.926,291.394 117.673 C 291.620 117.082,293.363 115.333,293.724 115.333 C 293.876 115.333,294.002 115.213,294.004 115.067 C 294.006 114.920,294.103 114.650,294.220 114.467 C 294.336 114.283,294.374 114.133,294.303 114.133 C 294.173 114.133,295.184 112.976,296.417 111.714 C 296.845 111.276,297.024 110.867,296.915 110.581 C 296.800 110.281,296.879 110.133,297.153 110.133 C 297.379 110.133,297.833 109.743,298.163 109.267 C 298.926 108.162,299.478 107.620,300.071 107.393 C 300.330 107.295,300.649 106.941,300.780 106.607 C 300.911 106.273,301.629 105.320,302.376 104.490 C 303.266 103.501,303.678 102.834,303.572 102.557 C 303.483 102.324,303.542 102.118,303.705 102.100 C 303.867 102.082,304.150 102.052,304.333 102.033 C 304.517 102.015,304.667 101.874,304.667 101.720 C 304.667 101.566,305.365 100.758,306.219 99.925 C 307.072 99.092,307.695 98.287,307.603 98.138 C 307.511 97.989,307.542 97.867,307.673 97.867 C 307.803 97.867,308.078 97.537,308.285 97.133 C 308.672 96.374,309.590 95.367,309.964 95.289 C 310.335 95.212,310.503 94.933,310.178 94.933 C 310.007 94.933,309.876 94.723,309.888 94.467 C 309.901 94.169,309.959 94.125,310.047 94.345 C 310.200 94.726,312.800 92.146,312.800 91.614 C 312.800 91.257,312.262 90.667,311.937 90.667 C 311.815 90.667,310.939 91.446,309.991 92.399 " stroke="none" fill="#5cc4f4" fill-rule="evenodd"></path></g></svg>